<?xml version="1.0" standalone="no"?><!DOCTYPE svg PUBLIC "-//W3C//DTD SVG 1.1//EN" "http://www.w3.org/Graphics/SVG/1.1/DTD/svg11.dtd" ><svg xmlns="http://www.w3.org/2000/svg"><metadata></metadata><defs><font id="SentyTEA 新蒂下午茶体 Platinum:Version 1.00" horiz-adv-x="2095"><font-face font-family="SentyTEA 新蒂下午茶体" font-weight="400" font-stretch="normal" units-per-em="2048" panose-1="3 0 6 0 0 0 0 0 0 0" ascent="2459" descent="-1051" x-height="0" bbox="-305 -745 1894 1801" underline-thickness="150" underline-position="-217" unicode-range="U+0021-ff0c" /><missing-glyph horiz-adv-x="1384"  /><glyph glyph-name="exclam" unicode="!" d="M255 1097 L275 1097 Q314 1097 334 881 Q314 774 314 703 L314 487 Q314 381 236 349 Q177 369 177 467 L177 546 Q191 1097 255 1097 ZM216 152 L236 152 Q264 152 295 93 L295 34 Q295 6 236 -25 L216 -25 Q188 -25 157 34 L157 93 Q157 122 216 152 Z" /><glyph glyph-name="quotedbl" unicode="&quot;" d="M80 1595 L119 1595 Q158 1589 158 1555 L158 1339 Q158 1299 119 1299 L60 1299 L60 1398 L80 1595 ZM434 1595 L454 1555 Q421 1240 355 1240 Q327 1240 296 1299 Q296 1568 434 1595 Z" /><glyph glyph-name="quotesingle" unicode="&#39;" d="M110 1388 L169 1388 L169 1369 Q143 1066 71 1034 L51 1034 Q12 1034 12 1093 L110 1388 Z" /><glyph glyph-name="comma" unicode="," d="M178 236 L237 236 Q296 224 296 79 Q259 -236 80 -236 L60 -236 L60 -216 Q178 -38 178 40 Q119 40 119 138 L119 177 Q119 206 178 236 Z" /><glyph glyph-name="hyphen" unicode="-" d="M296 610 L651 610 L651 532 L552 512 L296 512 L60 532 L60 591 L296 610 Z" /><glyph glyph-name="period" unicode="." d="M158 256 Q237 236 237 138 L237 79 Q237 48 158 0 L119 0 Q91 0 60 59 L60 177 Q101 256 158 256 Z" /><glyph glyph-name="slash" unicode="/" d="M473 1063 Q217 334 217 118 L158 79 L119 79 Q91 79 60 138 Q77 475 414 1063 L473 1063 Z" /><glyph glyph-name="zero" unicode="0" d="M591 1221 Q676 1221 769 1063 Q1084 973 1084 630 Q1084 248 572 -59 Q537 -79 493 -79 L336 -79 Q60 -79 60 335 Q60 932 513 1201 Q547 1221 591 1221 ZM158 276 Q194 20 375 20 L473 20 Q693 20 966 492 L985 610 L985 709 Q904 1004 729 1004 Q729 984 710 984 Q710 1024 631 1024 L631 1043 L710 1063 Q663 1149 611 1162 Q393 1162 217 669 Q158 527 158 276 Z" /><glyph glyph-name="one" unicode="1" d="M545 1178 L615 1178 L615 1160 Q469 -266 441 -266 L371 -266 Q331 -266 319 -179 Q319 46 511 986 Q432 882 353 882 L319 882 L319 899 Q503 1024 545 1178 Z" /><glyph glyph-name="two" unicode="2" d="M710 1221 Q906 1185 906 945 L906 906 Q906 599 572 158 L1202 79 Q1240 99 1261 99 L1261 79 Q1261 51 1143 -39 L1044 -39 Q1011 -39 572 20 L414 20 Q231 -118 158 -118 L99 -118 Q60 -118 60 -79 L60 -20 Q66 43 375 158 Q808 602 808 984 Q794 1142 651 1142 Q198 967 198 827 Q217 789 217 768 L139 768 Q139 789 119 827 Q119 972 454 1162 Q550 1221 710 1221 Z" /><glyph glyph-name="three" unicode="3" d="M178 1180 L552 1180 Q847 1161 847 1062 L847 1043 Q847 900 355 629 L355 609 Q867 609 867 314 Q867 21 119 -139 Q81 -119 60 -119 L60 -99 Q193 6 591 157 Q749 260 749 294 L749 373 Q749 491 178 550 L178 609 Q210 669 710 964 L769 1043 Q686 1102 414 1121 Q275 1102 178 1102 L178 1180 Z" /><glyph glyph-name="four" unicode="4" d="M867 1378 L926 1378 L926 1358 Q867 694 867 512 Q847 512 847 492 L887 492 Q1227 610 1280 610 Q1320 604 1320 571 L1320 532 Q1304 455 847 315 L847 40 L828 -157 L729 -157 L710 40 Q710 138 749 295 Q601 256 473 256 L316 256 Q145 256 60 394 L60 492 Q60 683 473 1221 L473 1240 L493 1240 Q532 1234 532 1201 Q198 624 198 532 L198 433 Q337 394 414 394 Q492 394 769 453 Q769 689 867 1319 L867 1378 Z" /><glyph glyph-name="five" unicode="5" d="M476 1271 L514 1271 Q553 1265 553 1232 L553 1214 L533 1117 Q695 1156 954 1156 L1146 1156 Q1173 1156 1203 1099 L1108 1079 Q980 1079 514 1060 L438 811 Q1031 672 1031 294 L1031 179 Q1031 -68 648 -185 Q624 -204 514 -204 L438 -204 Q224 -204 -3 83 L35 102 Q150 -50 323 -50 L495 -50 Q916 -11 916 294 Q916 628 341 735 L341 773 L476 1252 L476 1271 Z" /><glyph glyph-name="six" unicode="6" d="M690 1437 L769 1437 Q808 1431 808 1398 L808 1378 Q604 1378 316 729 Q1025 729 1025 473 Q1025 271 513 -59 L336 -98 Q60 -67 60 138 L60 158 Q60 610 552 1319 Q633 1415 690 1437 ZM257 610 Q158 314 158 138 Q216 0 336 0 Q577 0 926 453 L926 473 Q883 610 473 610 L257 610 Z" /><glyph glyph-name="seven" unicode="7" d="M906 1339 Q945 1319 966 1319 L966 1240 Q966 1182 710 669 Q532 329 532 -39 L532 -98 L552 -98 L552 -59 Q591 -65 591 -98 Q591 -200 532 -216 L493 -216 Q462 -216 414 -138 L414 -20 Q414 478 887 1221 L887 1260 Q710 1260 119 1201 L119 1063 L99 1063 Q60 1063 60 1103 L60 1260 Q774 1339 906 1339 Z" /><glyph glyph-name="eight" unicode="8" d="M670 1358 Q855 1358 1025 1024 L1025 984 Q1025 899 867 748 Q1000 748 1143 394 L1143 295 Q1143 35 552 -79 L493 -79 Q60 -79 60 158 Q60 349 336 610 Q213 610 198 768 L198 788 Q198 1122 631 1358 L670 1358 ZM296 748 L355 709 L454 709 Q525 788 769 807 Q926 925 926 1024 Q742 1280 631 1280 Q437 1188 316 886 L296 748 ZM139 177 Q139 51 473 0 Q1064 81 1064 354 Q1001 586 788 709 Q651 630 454 591 Q165 345 139 177 Z" /><glyph glyph-name="nine" unicode="9" d="M532 1398 L591 1398 Q828 1398 828 1043 L769 1043 Q769 1275 591 1319 L532 1319 Q279 1319 139 768 L139 650 Q171 571 277 571 L316 571 Q588 571 828 788 L887 1083 L926 1083 L926 1063 Q926 959 946 886 Q828 -197 749 -197 L729 -197 Q690 -197 690 -138 Q690 67 828 709 L808 709 Q540 492 296 492 L277 492 Q122 492 60 610 L60 807 Q208 1398 532 1398 Z" /><glyph glyph-name="semicolon" unicode=";" d="M139 630 L198 630 Q229 630 277 551 Q277 532 178 453 L139 453 Q110 453 80 512 Q92 630 139 630 ZM178 158 L217 158 Q250 158 277 20 Q277 -211 99 -236 L99 -216 Q139 -125 139 -20 Q60 -20 60 79 L60 99 Q80 158 178 158 Z" /><glyph glyph-name="less" unicode="&lt;" d="M493 984 L552 984 L552 965 Q552 901 178 591 L631 315 L631 276 Q631 236 591 236 L552 236 Q60 473 60 630 Q354 845 493 984 Z" /><glyph glyph-name="equal" unicode="=" d="M611 729 Q649 709 670 709 L670 630 L572 610 L60 610 L60 669 Q197 709 296 709 L532 709 Q577 709 611 729 ZM710 512 L729 473 Q729 406 375 374 Q139 389 139 433 L139 473 Q552 512 710 512 Z" /><glyph glyph-name="greater" unicode="&gt;" d="M99 1083 Q210 1083 788 630 L788 591 Q788 562 532 512 Q517 492 257 315 L217 315 Q178 315 178 354 L178 394 Q202 447 532 669 Q86 998 60 1043 Q66 1083 99 1083 Z" /><glyph glyph-name="U" unicode="u" d="M289 1276 L306 1276 Q340 1271 340 1242 Q255 1101 255 533 Q255 161 508 161 Q750 161 1066 634 Q1111 1260 1184 1260 L1218 1260 Q1263 1260 1286 1124 L1286 1091 Q1286 819 1235 719 Q1269 260 1336 9 L1336 -8 Q1336 -34 1269 -76 L1218 -76 Q1101 -76 1083 449 Q756 43 525 43 L475 43 Q154 136 154 364 L154 550 Q184 1242 289 1276 Z" /><glyph glyph-name="bracketleft" unicode="[" d="M60 1339 L257 1339 L395 1299 L395 1240 L375 1240 Q350 1240 178 1260 L198 1063 L198 807 Q198 295 257 295 Q454 276 454 236 L454 217 Q454 177 414 177 L355 177 Q119 177 119 315 L119 886 Q119 1055 60 1319 L60 1339 Z" /><glyph glyph-name="backslash" unicode="\" d="M60 1004 L119 1004 Q284 861 631 138 L631 79 Q631 40 591 40 L532 40 Q498 46 178 807 Q158 807 60 984 L60 1004 Z" /><glyph glyph-name="bracketright" unicode="]" d="M80 1280 L316 1280 Q355 1274 355 1240 Q355 852 473 118 L434 99 L414 99 Q396 99 257 138 L217 138 L80 118 L60 158 L60 217 L158 236 L355 236 Q277 547 277 1043 L277 1181 Q80 1181 80 1240 L80 1280 Z" /><glyph glyph-name="a" unicode="a" d="M533 841 Q667 803 667 722 L652 633 Q626 633 607 767 L533 781 Q298 781 175 334 L175 260 Q175 141 340 141 Q530 141 712 305 Q682 475 682 543 L682 603 Q682 624 727 648 L741 648 Q861 563 861 484 Q861 421 845 320 Q902 174 980 81 Q958 22 935 22 L920 22 Q799 22 756 215 L741 215 Q544 67 413 67 L279 67 Q119 67 86 215 L86 290 Q86 624 429 811 Q488 841 533 841 ZM786 543 L786 513 Q801 487 801 454 L817 454 L817 484 Q801 510 801 543 L786 543 Z" /><glyph glyph-name="b" unicode="b" d="M154 1435 L190 1435 Q226 1025 226 886 L438 886 Q828 797 828 513 L828 478 Q828 170 367 -1 Q298 -18 226 -18 Q101 -18 101 106 Q101 119 119 213 L172 213 L172 160 L208 160 Q136 349 136 709 L136 1311 L154 1435 ZM243 780 Q350 257 350 195 L367 195 Q516 195 668 478 L668 549 Q668 727 367 780 L243 780 Z" /><glyph glyph-name="c" unicode="c" d="M528 869 Q662 846 662 780 Q646 753 646 719 L617 719 Q617 794 588 794 L573 794 Q298 794 199 286 Q222 168 319 168 L439 168 Q575 168 811 331 L841 331 Q841 114 378 33 L349 33 Q133 33 95 227 L95 302 Q95 691 528 869 Z" /><glyph glyph-name="d" unicode="d" d="M816 1240 L834 1240 Q861 1240 905 1169 L869 1151 Q869 1169 852 1169 L834 956 L834 886 Q834 565 869 354 L923 389 L940 389 L887 283 L940 106 L940 88 Q940 63 887 35 L834 35 Q814 35 745 142 Q588 52 497 52 L479 52 Q107 86 107 319 L107 354 Q107 646 550 780 Q692 765 692 709 L709 709 Q722 1240 816 1240 ZM231 283 Q315 177 409 177 L568 177 Q600 177 727 230 Q692 406 692 531 L656 513 L639 513 L656 602 L656 655 Q656 691 621 691 L585 691 Q353 691 231 407 L231 283 Z" /><glyph glyph-name="e" unicode="e" d="M656 867 Q783 871 787 745 Q791 594 274 431 L195 430 L198 287 Q265 147 596 155 L801 160 Q816 161 926 196 L927 149 Q692 16 553 13 Q158 2 72 268 L72 300 Q62 668 531 863 L656 867 ZM224 509 L241 510 Q434 535 692 726 L691 773 L611 787 L595 787 Q405 782 224 509 Z" /><glyph glyph-name="f" unicode="f" d="M884 1684 Q1025 1684 1049 1463 Q1031 1352 994 1352 L976 1352 L976 1463 Q976 1563 903 1592 L846 1592 Q728 1592 607 1150 Q533 808 533 743 Q769 781 810 781 L903 762 L903 725 Q515 628 515 559 L515 319 Q515 143 551 -161 L515 -180 L478 -180 Q440 -180 329 189 Q411 97 422 97 L404 189 L404 521 L422 559 L404 559 Q183 548 183 521 Q219 462 219 411 L53 577 L53 596 Q53 635 422 706 Q547 1684 884 1684 Z" /><glyph glyph-name="g" unicode="g" d="M654 815 Q867 815 867 336 Q873 301 903 301 Q858 -497 707 -497 Q610 -638 442 -638 L424 -638 Q105 -615 105 -443 Q105 -350 212 -284 L230 -284 L212 -407 L212 -425 Q212 -479 407 -479 L442 -479 Q761 -415 761 142 L743 142 Q589 52 460 52 Q194 88 194 248 L194 301 Q194 688 601 815 L654 815 ZM301 319 L301 301 Q301 177 424 177 L566 177 Q761 204 761 248 L761 602 Q761 727 637 727 Q383 727 301 319 Z" /><glyph glyph-name="h" unicode="h" d="M203 1160 L287 1197 L324 1114 Q257 892 272 560 Q431 784 667 784 L695 784 Q862 784 902 497 L902 385 Q850 -13 770 -13 L711 -13 Q681 -13 681 18 L681 67 Q755 286 770 466 Q746 673 681 673 L593 673 Q286 502 271 431 Q239 358 280 60 Q223 -13 201 -13 L156 -13 Q110 184 203 1160 Z" /><glyph glyph-name="i" unicode="i" d="M234 1101 Q347 1066 358 1066 L358 1048 Q323 977 252 977 L270 942 L270 924 Q270 889 234 889 Q146 1010 146 1030 Q164 1101 234 1101 ZM234 782 Q305 754 305 658 Q305 461 341 55 L287 20 L252 20 Q175 20 164 268 Q164 419 181 746 L234 782 Z" /><glyph glyph-name="j" unicode="j" d="M297 1293 L333 1293 Q404 1264 404 1169 L404 1133 Q404 1106 333 1063 L280 1063 Q254 1063 227 1116 L227 1222 Q227 1249 297 1293 ZM297 833 L333 833 Q426 815 440 372 L440 248 Q440 -621 -109 -621 Q-281 -621 -305 -443 L-305 -407 Q-297 -371 -216 -337 Q-181 -354 -163 -354 L-163 -407 L-180 -443 L-145 -461 L-56 -461 Q199 -461 280 106 L280 460 Q280 583 244 797 L297 833 Z" /><glyph glyph-name="k" unicode="k" d="M175 1209 L193 1209 Q228 1204 228 1174 Q246 685 246 554 L264 554 L760 997 L831 997 L831 943 Q831 894 318 412 Q453 323 867 217 Q902 160 902 129 Q876 58 849 58 Q565 58 264 270 Q264 252 246 252 L264 217 L264 58 Q318 58 318 23 Q295 -66 264 -66 L228 -66 Q140 -66 140 252 Q140 668 175 1209 Z" /><glyph glyph-name="l" unicode="l" d="M204 1258 L222 1169 L222 407 Q222 142 293 142 Q314 142 487 213 L487 177 Q393 17 275 17 Q174 17 116 230 L116 460 Q116 1258 204 1258 Z" /><glyph glyph-name="m" unicode="m" d="M541 829 Q675 829 746 436 L761 436 Q931 814 1077 814 L1123 814 Q1266 745 1266 199 L1266 105 Q1266 -11 1218 -21 L1171 -21 Q1123 -11 1123 105 L1123 530 Q1123 610 1093 719 L1060 719 Q952 654 761 184 L699 184 Q655 184 619 546 Q601 546 556 719 L541 719 Q428 586 352 120 Q301 10 273 10 L241 10 Q178 32 178 151 L178 688 Q178 804 225 814 Q248 814 273 766 Q289 466 289 357 L304 357 Q421 829 541 829 Z" /><glyph glyph-name="n" unicode="n" d="M681 808 L699 807 Q976 770 923 80 L921 62 Q917 37 861 16 L826 21 Q770 29 791 437 Q746 675 699 682 L646 689 Q357 660 310 304 L280 76 Q276 51 219 30 L185 34 Q159 38 139 95 Q186 582 203 711 Q168 716 172 752 Q206 836 237 832 L272 827 L298 627 Q501 833 681 808 Z" /><glyph glyph-name="o" unicode="o" d="M479 850 Q868 850 868 637 L868 548 Q868 236 444 70 L284 70 Q142 70 107 265 Q107 549 479 850 ZM462 779 Q232 532 213 300 L213 212 Q231 159 319 159 L390 159 Q657 159 780 530 L780 619 Q780 761 515 761 Q515 779 462 779 Z" /><glyph glyph-name="p" unicode="p" d="M187 939 L258 939 L258 762 L453 762 Q772 762 772 566 Q772 259 223 70 Q205 70 205 35 L223 -124 L205 -124 Q240 -235 258 -497 L223 -514 L187 -514 Q98 -514 98 -1 L98 88 L152 531 Q134 624 134 709 Q187 709 187 939 ZM258 673 Q240 326 223 213 L240 213 Q665 348 665 602 Q597 673 435 673 L258 673 Z" /><glyph glyph-name="q" unicode="q" d="M415 815 Q479 815 557 744 L574 744 Q574 815 610 815 L628 815 L663 797 Q681 443 681 266 L681 -36 Q681 -91 735 -372 L681 -407 L645 -407 Q553 -395 539 -1 L539 177 Q447 106 345 106 L327 106 Q96 106 96 336 L96 372 Q96 746 327 815 L415 815 ZM203 336 Q203 195 362 195 L398 195 Q539 195 539 336 Q557 475 557 619 Q525 744 398 744 Q203 744 203 336 Z" /><glyph glyph-name="r" unicode="r" d="M542 861 Q612 835 612 808 L612 790 L365 630 Q294 559 259 383 Q294 176 294 81 L241 46 L223 46 Q118 79 134 365 Q152 565 146 853 L199 853 L223 648 Q409 861 542 861 Z" /><glyph glyph-name="s" unicode="s" d="M723 923 Q753 923 783 862 L783 823 L763 823 Q715 862 682 862 Q525 862 239 560 Q741 406 804 358 L804 298 Q804 101 339 35 L239 35 Q130 35 97 116 L97 136 Q122 338 178 338 Q178 177 218 177 Q357 177 662 277 L662 317 Q118 437 118 539 Q118 749 622 923 L723 923 Z" /><glyph glyph-name="t" unicode="t" d="M482 1146 Q515 1141 515 1113 L536 816 Q568 816 737 849 L845 853 Q519 680 519 664 L519 146 Q519 86 536 -4 Q519 -37 519 -55 L454 -55 Q369 -16 369 196 L369 246 Q369 546 403 631 L386 631 Q260 598 152 598 L68 614 L68 664 Q82 698 403 764 Q431 1146 482 1146 Z" /><glyph glyph-name="u" unicode="u" d="M807 803 L855 803 L855 595 Q855 395 871 101 Q855 70 855 52 L824 52 Q760 52 728 340 Q743 367 743 404 L712 404 Q531 85 361 85 L313 85 Q137 85 105 324 L105 515 Q116 771 169 771 L217 771 L201 659 L201 420 Q201 180 345 180 Q495 180 728 531 Q765 803 807 803 Z" /><glyph glyph-name="v" unicode="v" d="M761 850 L779 850 Q850 850 903 762 L903 691 Q903 547 477 88 L389 88 Q276 162 105 744 L140 762 L176 762 Q421 220 442 213 Q679 502 797 709 Q761 821 761 850 Z" /><glyph glyph-name="w" unicode="w" d="M1133 853 L1192 853 Q1221 853 1252 794 L1252 576 Q1139 62 915 62 Q712 62 638 538 Q609 532 442 142 L342 62 L282 62 Q167 62 105 576 L105 636 Q117 754 164 754 Q215 754 263 300 Q303 300 303 201 L342 201 Q539 601 638 676 Q703 676 836 221 L895 182 L936 182 Q1153 390 1153 636 L1153 754 Q1153 794 1093 794 L1093 815 Q1100 853 1133 853 Z" /><glyph glyph-name="x" unicode="x" d="M793 815 L810 780 Q696 682 544 407 Q828 147 828 52 L793 35 L739 35 Q709 35 491 283 L473 283 Q309 2 208 -89 L136 -89 Q101 -89 101 -54 L101 -18 Q101 43 367 407 L119 619 Q119 655 172 655 Q243 655 438 513 L456 513 Q642 815 793 815 Z" /><glyph glyph-name="y" unicode="y" d="M868 797 L922 797 Q628 44 213 -568 L159 -568 Q134 -568 106 -514 L106 -461 Q177 -229 177 -213 L195 -213 L231 -230 Q231 -204 443 124 L443 142 Q194 142 141 602 L141 709 Q148 744 177 744 L195 744 Q223 744 302 407 Q395 230 496 230 L868 797 Z" /><glyph glyph-name="z" unicode="z" d="M143 709 L675 709 Q781 709 781 602 L781 584 Q781 515 463 106 L746 106 Q799 106 959 52 L959 35 Q885 -54 746 -54 L586 -54 Q304 -42 304 35 L304 124 Q637 525 657 602 L640 602 Q609 584 569 584 L516 584 Q286 584 108 637 L108 673 Q114 709 143 709 Z" /><glyph glyph-name="periodcentered" unicode="·" d="M988 667 Q988 586 931 529 Q873 471 792 471 Q711 471 654 529 Q596 586 596 667 Q596 748 654 806 Q711 863 792 863 Q873 863 931 806 Q988 748 988 667 ZM988 667 Q988 586 931 529 Q873 471 792 471 Q711 471 654 529 Q596 586 596 667 Q596 748 654 806 Q711 863 792 863 Q873 863 931 806 Q988 748 988 667 Z" /><glyph glyph-name="uni3002" unicode="&#x3002;" d="M139 236 Q395 211 395 138 L395 40 Q369 -138 217 -138 L119 -138 Q91 -138 60 -79 L60 79 Q84 226 139 236 ZM119 20 L119 -20 Q125 -59 158 -59 L178 -59 Q284 -59 316 20 L316 118 L217 138 L178 138 Q119 118 119 20 Z" /><glyph glyph-name="uni4E0D" unicode="&#x4e0d;" d="M1413 1202 L1466 1197 Q1487 1191 1487 1174 L1487 1143 Q1470 1124 1142 1093 L513 1041 L503 1063 L503 1073 Q503 1137 1413 1202 ZM1120 1064 L1142 1031 Q1025 894 607 162 L712 266 L723 266 Q532 -92 471 -86 L451 -84 Q433 -81 408 -37 L408 -27 Q485 268 1058 1040 Q1098 1067 1120 1064 ZM1026 634 L1058 630 Q1131 183 1131 -194 Q1115 -234 1099 -232 L1068 -229 Q1054 -228 1036 -195 L1036 99 Q1036 244 1015 604 Q1026 623 1026 634 ZM1203 678 L1224 675 Q1454 477 1591 262 Q1664 124 1685 11 Q1670 -29 1653 -27 L1621 -24 Q1588 -8 1517 218 Q1396 420 1203 647 L1203 678 Z" /><glyph glyph-name="uni4E2A" unicode="&#x4e2a;" d="M1040 1582 Q1065 1571 1078 1572 Q977 1400 724 864 L505 363 Q444 195 420 84 Q376 72 370 72 Q370 84 322 120 Q493 536 907 1400 Q992 1582 1040 1582 ZM870 986 L919 987 Q1124 963 1370 790 Q1417 751 1760 583 L1772 521 L1736 498 L1723 498 Q1477 602 1054 888 Q853 909 847 961 Q850 986 870 986 ZM1028 864 L1078 840 L1066 778 L1066 657 Q1066 629 1078 608 Q1078 596 1066 595 L1078 512 L1078 426 Q1078 145 1090 -381 L1102 -404 Q1078 -526 1028 -526 Q931 -477 931 -392 L931 -381 L1005 -381 L1005 -233 L992 -87 L1005 -87 L992 -63 L992 72 Q992 84 1005 84 L992 108 L992 120 Q992 147 1005 169 Q992 190 992 218 L992 242 Q992 254 1005 254 L992 278 Q992 290 1005 290 L992 315 Q992 328 1005 328 L992 351 L992 851 Q1016 865 1028 864 Z" /><glyph glyph-name="uni4F53" unicode="&#x4f53;" d="M1345 1473 L1370 1473 Q1394 1473 1394 1437 Q1394 1329 1406 949 L1419 949 Q1604 986 1662 986 Q1686 974 1699 974 L1699 949 Q1699 922 1406 888 L1406 523 Q1664 429 1894 72 L1894 47 Q1894 30 1858 11 L1832 11 Q1769 11 1711 73 L1772 72 Q1590 355 1406 450 L1406 133 Q1498 169 1564 169 Q1588 157 1601 156 L1601 133 Q1595 105 1406 59 L1406 -379 Q1406 -398 1357 -416 Q1297 -392 1297 -343 Q1309 -218 1309 -147 L1309 35 Q1194 11 1126 11 L1102 23 Q1093 -173 1054 -173 Q1004 -161 1004 -99 Q1004 264 1212 620 L1309 755 L1309 865 L809 755 L809 767 Q809 811 1175 889 Q1287 925 1321 925 L1321 1058 Q1321 1340 1345 1473 ZM724 1400 L772 1400 L772 1376 Q614 1071 383 486 L407 498 L407 473 Q301 206 273 206 Q200 206 200 266 Q200 464 724 1400 ZM589 851 Q631 851 639 633 Q602 121 602 -87 L602 -111 Q602 -174 565 -184 L529 -184 Q498 -184 492 -135 Q492 105 577 803 Q565 826 565 839 L589 851 ZM1297 657 L1273 583 L1297 571 L1309 571 L1309 657 L1297 657 ZM1247 548 Q1102 186 1102 59 L1114 59 Q1309 91 1309 121 L1309 498 Q1303 524 1247 548 Z" /><glyph glyph-name="uni51FA" unicode="&#x51fa;" d="M1039 1371 L1055 1371 Q1115 1371 1115 1111 L1115 821 Q1422 891 1422 944 Q1432 1157 1483 1157 L1498 1157 Q1557 1157 1574 668 Q1543 576 1513 576 L1467 576 Q1406 601 1406 684 L1406 776 L1391 776 Q1308 723 1115 653 L1115 73 L1101 -34 Q1302 57 1391 57 Q1376 237 1376 317 L1376 377 Q1380 408 1406 408 Q1574 186 1574 -156 Q1564 -233 1529 -233 L1467 -233 Q1406 -218 1406 -81 Q996 -249 810 -249 Q581 -249 581 -96 Q637 227 733 363 L749 363 Q780 359 780 332 L780 301 Q780 224 719 -96 L764 -96 Q948 -96 948 -51 Q979 273 979 607 L963 607 Q801 561 688 561 Q520 572 520 684 Q570 1066 627 1066 L642 1066 Q673 1060 673 1035 L673 729 L749 729 Q841 729 979 776 L979 1188 Q979 1371 1039 1371 Z" /><glyph glyph-name="uni52D2" unicode="&#x52d2;" d="M590 1509 L602 1509 Q628 1505 628 1485 L628 1119 Q822 1173 822 1203 L847 1497 L859 1498 Q900 1497 907 1217 L931 1217 Q979 1253 1041 1253 L1054 1253 Q1078 1249 1078 1229 L1078 1192 Q896 1145 896 1095 Q880 728 859 729 L871 668 L871 570 Q993 583 1054 583 L1103 583 Q1127 579 1127 559 L1127 535 L1041 437 Q1103 437 1103 411 L1103 399 L859 254 L859 96 L871 95 Q996 180 1029 180 L1041 156 L1041 144 Q1035 117 859 23 L859 -233 Q859 -297 871 -441 Q848 -453 834 -453 Q773 -453 773 -295 L773 -38 Q635 -112 614 -112 L614 -124 L640 -124 Q640 -148 614 -148 L614 -136 L590 -148 L579 -148 Q554 -148 554 -124 L554 -112 Q773 37 773 59 Q786 122 786 180 L786 241 Q706 205 614 205 L579 205 Q554 205 554 230 L554 241 Q683 242 798 339 Q798 406 810 509 L481 425 L481 -76 L432 -76 Q415 -76 396 -38 L396 180 Q396 443 432 559 L481 559 L481 461 Q613 521 810 559 L822 583 L822 705 L773 717 Q712 717 602 656 L579 668 Q557 656 530 656 L518 680 Q518 711 566 717 L566 1022 L554 1022 Q418 972 298 972 Q225 986 225 1010 L225 1035 Q231 1058 286 1082 L286 1070 Q273 1046 273 1034 L298 1034 Q368 1034 566 1095 Q566 1129 590 1509 ZM628 1045 L628 838 L640 838 Q647 925 676 924 L676 912 Q652 790 652 754 Q783 787 786 802 Q786 873 810 1095 L628 1045 ZM1590 887 L1614 887 L1614 876 Q1590 838 1516 497 L1542 497 Q1688 570 1761 570 L1833 570 Q1870 559 1870 497 L1870 473 Q1870 320 1675 -99 L1651 -111 L1602 -112 Q1530 -68 1530 108 L1553 120 Q1553 37 1590 -64 L1626 -64 Q1809 376 1809 462 L1809 535 L1797 535 Q1492 480 1492 376 Q1432 32 1432 -161 L1432 -173 L1420 -234 L1358 -234 Q1340 -234 1322 -197 Q1322 -54 1406 388 L1163 253 L1163 266 Q1204 323 1432 461 Q1543 887 1590 887 ZM871 521 L871 376 Q1048 510 1054 535 L1029 535 Q878 521 871 521 Z" /><glyph glyph-name="uni53BB" unicode="&#x53bb;" d="M1067 1480 Q1135 1480 1157 1059 Q1375 1133 1432 1133 L1450 1133 Q1476 1133 1505 1077 L1505 1059 Q1505 1005 1157 913 L1157 548 L1140 512 L1157 512 Q1527 603 1614 603 L1633 565 L1633 548 Q1585 470 1011 347 Q1011 323 756 -165 L792 -165 Q1045 -165 1468 73 L1395 200 Q1402 238 1432 238 Q1646 43 1724 -328 Q1724 -365 1688 -365 L1651 -365 Q1613 -340 1505 0 L1486 0 Q1166 -293 811 -293 Q673 -293 628 -200 Q628 -99 902 347 L884 347 Q759 329 683 329 L573 329 Q372 329 372 384 Q372 398 427 438 L518 420 Q621 420 1121 493 L1121 512 Q1030 512 1030 565 L1030 877 Q858 840 756 840 Q730 840 702 895 L702 931 Q1030 997 1030 1041 L1030 1096 Q1030 1201 1049 1388 Q1030 1420 1030 1461 L1067 1480 Z" /><glyph glyph-name="uni554A" unicode="&#x554a;" d="M1668 1406 L1717 1406 Q1790 1406 1790 1332 L1753 1308 Q1720 1309 1680 1332 Q1461 1284 1278 1222 L1266 1222 Q1242 1222 1242 1247 L1242 1260 Q1340 1357 1668 1406 ZM839 1308 L851 1308 Q900 1283 900 1247 L925 1247 Q1144 1232 1168 1125 Q1168 1030 998 857 L1096 724 Q1108 703 1108 662 Q1108 527 937 469 L913 371 Q913 359 925 359 L913 297 L913 152 Q913 123 925 102 Q913 81 913 54 L913 -92 Q913 -165 851 -165 Q815 -121 815 -80 L815 114 Q815 142 827 163 Q827 175 815 175 L827 235 L827 249 Q827 293 815 359 L827 382 L815 407 L827 431 L815 455 Q815 464 827 529 L815 590 L827 590 L815 614 Q815 662 827 662 L815 748 L815 869 Q815 910 827 931 L815 1003 L815 1162 L755 1186 L755 1199 Q829 1308 839 1308 ZM1705 1247 L1740 1247 Q1802 1153 1838 529 Q1838 461 1850 394 Q1838 373 1838 345 L1850 261 Q1850 249 1838 249 L1850 163 L1850 42 Q1850 -349 1680 -349 L1619 -337 L1485 -337 Q1461 -337 1363 -311 L1363 -275 Q1373 -275 1437 -263 Q1449 -263 1449 -275 Q1740 -275 1740 -153 L1765 127 Q1740 831 1680 1186 Q1705 1225 1705 1247 ZM328 1174 Q376 1174 389 1101 Q376 1035 376 991 L376 917 Q381 894 401 894 L462 895 Q755 894 755 699 Q701 492 645 492 Q645 438 499 419 Q450 431 450 492 Q572 492 658 662 L658 686 Q658 780 535 796 L462 798 Q364 796 364 724 L364 650 Q364 606 376 540 L364 517 L376 492 L364 468 Q364 410 414 273 Q401 249 401 235 L341 235 Q300 235 267 407 L267 431 Q267 443 279 443 L267 468 L267 736 L243 821 Q279 878 279 894 Q279 1142 328 1174 ZM925 1162 L913 1137 L913 1101 Q913 1060 925 1041 L913 967 L913 917 Q1071 1062 1071 1113 Q1019 1162 925 1162 ZM1254 1066 L1266 1065 L1230 991 Q1242 869 1266 869 Q1463 917 1498 917 L1582 917 Q1692 917 1692 821 L1692 760 Q1547 519 1351 444 Q1302 461 1302 480 L1242 468 L1230 468 Q1156 547 1156 711 Q1132 711 1132 736 L1132 796 L1156 834 L1156 955 Q1230 1060 1254 1066 ZM1254 737 Q1290 626 1290 590 L1290 540 L1340 540 Q1420 540 1595 772 L1595 796 Q1595 806 1559 834 Q1254 777 1254 749 L1254 737 ZM913 748 L913 565 Q1010 565 1010 650 Q986 715 925 748 L913 748 Z" /><glyph glyph-name="uni5B57" unicode="&#x5b57;" d="M917 1587 Q1036 1489 1142 1304 L1142 1279 Q1142 1256 1119 1256 L1106 1256 Q1062 1278 893 1576 L917 1587 ZM490 1304 Q508 1304 526 1268 L526 1055 L539 1055 Q884 1221 1532 1221 Q1674 1201 1674 1102 Q1674 927 1212 818 Q1196 755 1094 652 Q1248 565 1248 332 L1248 321 Q1444 332 1544 332 L1639 332 Q1656 332 1674 297 L1674 262 Q1674 235 1555 215 L1509 227 Q1428 227 1260 202 L1260 143 Q1260 -354 1000 -353 L952 -354 Q759 -354 621 -187 L644 -188 Q793 -267 882 -271 L976 -271 Q1177 -271 1177 108 L1177 191 Q1058 191 490 85 Q443 102 443 120 L443 132 Q512 195 976 285 Q1165 285 1165 321 Q1165 561 988 628 L988 664 Q988 671 1106 818 L1106 843 Q1033 843 775 759 L763 759 Q739 759 739 782 L739 794 Q908 925 1094 925 L1177 925 Q1212 925 1212 854 Q1579 1025 1579 1125 L1520 1137 Q945 1137 539 983 Q515 931 515 829 L515 664 Q550 618 550 558 L550 475 Q550 451 526 451 L490 451 Q450 451 431 582 L431 712 Q431 747 420 747 L431 806 L431 843 Q431 1304 490 1304 Z" /><glyph glyph-name="uni5F04" unicode="&#x5f04;" d="M1328 1656 Q1393 1656 1413 1608 L1413 1583 Q1413 1560 1389 1559 L1328 1582 Q1228 1583 1072 1521 Q1039 1521 853 1473 L731 1473 Q707 1473 707 1497 L707 1521 Q707 1551 1072 1595 Q1072 1626 1328 1656 ZM1048 1437 L1097 1437 Q1120 1437 1134 1327 L1120 1254 L1158 1255 Q1208 1254 1255 1266 Q1389 1247 1389 1217 L1389 1205 Q1389 1180 1365 1180 L1255 1181 L1134 1168 L1134 1022 Q1134 994 1120 974 L1146 900 Q1328 937 1328 986 L1389 974 L1389 925 Q1360 877 1134 815 Q1108 729 1072 729 L1036 729 Q1011 671 987 498 L999 499 Q1179 523 1267 523 L1279 523 L1267 608 L1267 657 Q1267 680 1292 779 L1340 779 L1377 755 L1365 729 L1365 571 Q1365 561 1402 535 L1475 572 L1560 571 Q1583 568 1583 548 L1583 535 Q1583 504 1377 450 L1377 -294 L1365 -367 Q1377 -390 1377 -403 Q1377 -548 1292 -598 L1267 -598 Q1201 -526 1182 -526 L1182 -476 L1194 -476 L1255 -487 Q1279 -452 1279 -403 Q1279 -130 1292 108 Q1279 255 1279 438 L1255 451 Q1019 418 999 402 Q972 400 962 121 Q962 108 975 108 L962 47 L962 -25 Q962 -63 1011 -147 Q984 -269 927 -269 Q877 -269 865 -111 L877 -111 L865 -86 Q877 279 877 340 Q889 363 889 376 L877 376 Q852 376 548 316 Q525 328 512 328 L512 352 Q512 421 865 462 Q909 462 927 741 L950 755 L999 755 L1024 741 L1024 779 L999 780 L622 693 Q573 706 573 755 Q588 779 1011 865 L1036 888 Q1036 922 1024 1132 L1011 1132 Q812 1071 791 1071 L731 1084 L731 1107 Q731 1141 1036 1217 L1036 1375 L1048 1437 Z" /><glyph glyph-name="uni5F85" unicode="&#x5f85;" d="M1382 1461 L1406 1461 Q1431 1461 1443 1315 L1480 1315 Q1569 1315 1577 1278 L1577 1265 Q1523 1205 1431 1205 L1431 1192 Q1431 913 1370 913 L1333 913 Q1333 926 1322 925 L1333 987 L1333 1145 Q1319 1144 1199 1120 L1187 1144 L1187 1168 Q1209 1202 1333 1255 L1345 1278 L1345 1423 Q1345 1441 1382 1461 ZM834 1327 Q817 1229 675 1010 Q675 983 663 961 Q675 939 675 913 L614 876 Q592 888 578 888 L578 986 Q578 1042 785 1327 L834 1327 ZM956 1084 L980 1046 Q667 668 443 156 Q407 21 407 -14 L443 -75 L443 -99 Q398 -99 370 -123 Q352 -123 322 -75 L322 -37 Q322 209 675 741 Q863 1084 956 1084 ZM1613 948 Q1699 933 1699 913 Q1699 876 1516 839 Q1516 827 1503 827 Q1516 728 1529 705 L1516 681 Q1529 661 1529 620 L1553 622 Q1729 645 1736 645 Q1759 631 1772 631 L1772 608 Q1772 575 1687 559 L1662 571 Q1541 541 1541 523 Q1553 131 1564 84 Q1545 -404 1467 -404 L1455 -404 Q1448 -404 1333 -366 L1333 -318 L1382 -319 Q1443 -319 1443 -257 Q1464 -257 1480 156 L1467 182 Q1480 202 1480 230 Q1480 281 1443 498 L1395 499 Q1134 364 1016 365 L1004 388 L1004 413 Q1004 444 1212 486 L1431 583 L1443 608 Q1443 618 1406 803 L1054 729 L1028 767 L1028 803 L1613 948 ZM834 559 L846 535 L846 523 Q846 510 834 510 Q834 498 846 498 L834 450 Q846 385 846 376 L834 328 Q846 279 846 242 L834 242 Q834 230 846 230 L821 -111 Q834 -134 834 -147 Q814 -244 785 -245 L772 -245 Q749 -245 737 -99 Q749 7 761 316 L749 438 Q749 559 834 559 ZM1236 195 L1247 169 Q1241 138 1089 72 Q1089 23 1066 23 L1016 24 L1004 84 Q1095 195 1236 195 Z" /><glyph glyph-name="uni6211" unicode="&#x6211;" d="M1553 1459 Q1713 1232 1713 1187 L1713 1175 Q1713 1157 1676 1137 L1664 1137 Q1528 1278 1528 1397 L1528 1433 Q1532 1459 1553 1459 ZM1208 1310 L1233 1310 Q1257 979 1269 916 Q1380 941 1430 941 Q1454 937 1454 916 L1454 904 Q1454 887 1281 829 Q1281 726 1380 312 Q1565 589 1651 658 L1676 658 Q1606 574 1418 189 Q1418 46 1688 -218 L1713 -69 L1738 -69 L1738 -81 Q1738 -125 1774 -304 Q1757 -353 1738 -353 L1688 -353 Q1483 -202 1343 66 Q1204 -279 1183 -279 L1146 -279 Q1128 -279 1110 -242 Q1110 -139 1307 189 L1319 189 Q1257 438 1257 521 L1245 521 Q1079 411 850 337 Q850 -403 764 -403 L727 -403 Q697 -375 604 -107 L629 -107 Q629 -146 703 -230 Q715 -166 740 288 Q696 288 432 165 L345 165 Q321 165 321 189 Q321 229 740 374 Q752 519 752 583 L752 706 Q554 645 468 645 L444 645 Q419 645 419 670 Q419 694 494 706 L494 694 Q764 771 764 793 L764 953 L776 1014 Q665 990 617 990 L580 990 Q560 990 530 1040 L530 1052 Q530 1112 1072 1212 L1084 1212 Q1102 1212 1122 1175 L1122 1125 Q1122 1085 850 1040 L850 793 L1208 891 Q1196 1014 1196 1076 Q1196 1115 1208 1310 ZM850 732 L850 424 Q1093 485 1245 559 L1208 817 Q896 732 850 732 Z" /><glyph glyph-name="uni6587" unicode="&#x6587;" d="M962 1351 L1005 1351 Q1345 1351 1345 1209 Q1330 1209 1330 1195 L1302 1209 Q1141 1181 1076 1181 L949 1181 Q870 1181 821 1265 Q821 1340 962 1351 ZM1501 1011 Q1530 1007 1530 983 L1530 968 Q1530 931 1132 827 Q764 671 609 671 Q523 685 523 714 Q669 741 1429 1011 L1501 1011 ZM1189 728 Q1217 724 1217 700 L1217 601 Q1217 470 1132 189 L1147 189 Q1502 14 1571 -192 L1571 -264 Q1571 -284 1530 -306 L1486 -306 Q1444 -288 1402 -178 Q1193 62 1076 62 Q947 -221 807 -221 Q595 -156 595 331 Q641 359 679 359 L793 359 Q849 359 1032 275 Q1118 496 1160 728 L1189 728 ZM665 275 Q716 -108 793 -108 L807 -108 Q866 -108 991 161 Q811 275 721 275 L665 275 Z" /><glyph glyph-name="uni662F" unicode="&#x662f;" d="M878 1582 Q918 1502 918 1106 Q1193 1174 1258 1174 Q1286 1169 1286 1146 L1286 1120 Q1258 1065 1204 1065 L1204 1079 Q1177 1065 933 1010 L933 821 L973 847 L986 847 Q986 821 1000 821 Q1123 860 1162 860 L1204 860 Q1232 857 1232 834 Q1176 807 1149 807 Q1151 784 1272 712 L1286 712 Q1367 1275 1367 1486 L1367 1499 L1354 1499 Q1023 1392 960 1392 L960 1405 Q1264 1569 1367 1569 L1380 1569 Q1435 1549 1435 1459 Q1400 616 1326 616 L1286 616 Q1136 750 1136 793 Q1121 793 986 766 L933 766 L946 697 L946 658 Q946 638 905 616 L850 616 Q824 616 810 697 Q826 1582 878 1582 ZM1666 590 L1679 562 L1679 548 Q1679 475 1136 453 L1136 440 Q1217 440 1217 331 Q1217 209 1204 -145 Q1178 -207 1149 -213 L1123 -213 Q1088 -213 1082 -158 L1123 440 L1110 440 L498 372 L429 372 Q410 372 388 413 L416 426 Q430 426 456 413 Q918 508 1666 590 ZM769 222 L783 222 Q805 222 850 127 Q837 -130 837 -308 Q872 -395 905 -403 Q1184 -403 1707 -227 L1707 -240 Q1441 -526 1055 -526 Q755 -526 755 -308 L755 -253 Q755 -140 783 154 L769 222 ZM1598 222 L1626 182 L1626 154 Q1626 134 1585 113 L1544 113 Q1458 113 1340 99 Q1286 113 1245 113 L1245 154 L1598 222 Z" /><glyph glyph-name="uni6765" unicode="&#x6765;" d="M1036 1618 Q1061 1616 1090 1365 L1318 1385 Q1370 1366 1370 1348 L1370 1326 Q1370 1287 1080 1278 Q1090 1078 1090 987 L1090 835 Q1324 1041 1392 1151 L1392 1161 L1370 1164 L1318 1158 L1318 1179 Q1443 1199 1468 1197 L1479 1175 L1479 1153 Q1384 906 1101 769 L1090 770 L1090 673 Q1390 693 1436 725 Q1414 727 1414 748 L1414 759 L1425 759 Q1522 724 1522 694 L1522 662 Q1501 628 1166 601 Q1166 568 1090 543 L1090 392 Q1322 259 1652 -238 L1652 -313 Q1652 -330 1608 -352 L1598 -351 Q1489 -315 1489 -232 L1511 -223 Q1452 -89 1090 328 L1090 -169 Q1123 -334 1123 -357 Q1123 -406 1058 -426 Q1004 -406 1004 -345 L1004 293 L1014 420 Q790 76 658 -278 Q658 -321 614 -339 L571 -334 Q550 -332 550 -310 L550 -289 Q550 -156 1014 539 L1014 593 Q584 550 495 559 Q442 573 442 597 Q442 630 658 629 Q751 652 1014 669 L1014 724 L960 718 Q1014 755 1014 799 L1014 1264 L1004 1265 Q649 1235 604 1240 L593 1263 L593 1274 Q593 1306 1014 1361 Q1014 1410 1004 1599 L1036 1618 ZM690 1090 L702 1089 Q785 990 809 895 L820 895 L917 971 L917 961 Q866 867 852 750 L830 741 L787 746 Q741 751 669 1082 L690 1090 Z" /><glyph glyph-name="uni6D4B" unicode="&#x6d4b;" d="M889 1423 Q912 1419 912 1398 L912 1350 Q912 1289 901 1167 L912 1167 Q1083 1313 1217 1315 Q1321 1313 1339 1131 Q1266 266 1193 266 L1144 266 Q1227 72 1315 72 L1315 23 Q1315 -9 1217 -24 Q1118 70 1034 242 L1022 242 L998 230 Q998 218 1010 218 Q946 -51 912 -51 L889 -51 Q871 -51 852 -14 Q937 223 1022 1033 Q1034 1033 1034 1058 L1083 1058 L1108 1045 Q1096 805 1034 340 Q1089 340 1108 328 Q1111 352 1132 351 Q1108 402 1108 425 Q1193 425 1193 680 Q1229 799 1229 1167 L1229 1179 Q1229 1203 1206 1203 L1193 1203 Q1096 1203 937 1070 L924 1070 Q901 1100 901 1119 L889 1119 Q864 794 864 631 L864 595 L876 473 L864 473 L876 449 L876 363 Q864 328 803 328 L766 351 Q379 -104 357 -104 Q294 -117 284 -117 L273 -91 L294 -4 Q649 246 766 497 Q766 997 840 1423 L889 1423 ZM1712 1456 Q1806 1452 1812 354 L1800 354 Q1821 354 1822 -11 Q1797 -289 1736 -288 L1688 -286 Q1594 -227 1582 -184 L1583 -159 L1606 -161 L1692 -176 L1705 -153 L1709 -68 Q1720 1395 1637 1398 L1637 1422 Q1651 1459 1712 1456 ZM378 1289 Q669 1252 669 1191 L669 1167 Q669 1143 645 1144 Q398 1184 352 1217 L340 1240 L340 1265 Q340 1289 378 1289 ZM1461 875 L1485 875 Q1538 875 1594 521 L1546 497 Q1461 507 1461 754 Q1443 754 1436 864 L1461 875 ZM559 790 Q633 778 633 754 L633 717 Q621 717 596 705 L547 717 Q352 656 292 656 L280 680 L280 705 Q400 790 559 790 Z" /><glyph glyph-name="uni7528" unicode="&#x7528;" d="M549 1308 L565 1308 Q597 1304 597 1276 L565 1227 L565 1080 L549 1048 L582 1033 Q1279 1129 1482 1246 Q1627 1246 1660 1019 L1660 1003 Q1686 644 1670 220 L1653 187 L1670 155 Q1653 74 1638 75 Q1638 58 1653 57 Q1682 -422 1545 -321 L1508 -252 Q1449 -243 1134 122 L1134 155 L1151 155 Q1492 -169 1540 -169 Q1573 -119 1556 399 Q1534 878 1541 979 Q1548 1080 1497 1166 L1319 1107 Q1190 1048 1053 1015 L1053 1032 Q557 953 549 917 Q500 794 500 122 L500 57 Q582 58 582 25 L582 -73 Q582 -88 565 -89 L582 -121 L582 -186 Q549 -227 549 -252 L500 -252 Q452 -252 419 -41 L434 -8 L419 74 L434 74 Q434 90 419 90 L434 204 L434 350 Q460 1308 549 1308 ZM906 935 L923 935 Q1004 894 1004 805 L1004 675 L1166 675 L1247 658 L1247 626 Q1036 618 1036 578 L1036 350 L1215 399 L1215 383 L1247 398 L1312 399 L1312 383 Q1312 350 1036 268 L1036 -56 Q1036 -176 988 -187 Q961 -187 923 -89 L939 -8 L939 90 Q939 127 923 155 Q939 187 939 204 Q923 204 923 220 L744 171 L695 171 L695 204 Q695 231 939 301 Q939 366 955 366 L939 398 L939 415 Q939 431 955 431 L939 464 L939 578 L923 578 Q738 545 663 545 L630 545 L630 593 Q906 639 939 691 Q918 809 890 887 Q906 917 906 935 Z" /><glyph glyph-name="uni7684" unicode="&#x7684;" d="M1413 1202 Q1435 1199 1435 1181 L1305 944 L1305 933 L1316 933 Q1475 1009 1681 1009 L1747 1009 Q1790 1009 1790 793 Q1790 -156 1640 -156 L1629 -156 Q1508 -156 1316 70 L1338 70 Q1510 -69 1618 -69 Q1688 -69 1714 609 L1714 944 L1703 944 Q1273 917 1240 814 Q1187 644 1153 641 L1143 641 Q1117 641 1110 684 Q1110 752 1359 1148 L1413 1202 ZM820 1181 L841 1181 Q863 1177 863 1159 Q863 1113 658 857 L669 836 Q658 745 658 684 Q889 857 939 857 Q1014 857 1014 556 L1014 426 Q1014 197 982 59 L993 37 L993 17 Q993 7 950 -15 L874 -5 L723 -5 Q701 -5 701 17 L701 28 Q706 50 755 70 L755 50 Q851 59 874 59 L810 167 L810 178 Q820 178 907 81 L917 81 L917 92 Q939 336 939 351 L928 351 Q728 275 658 275 Q658 286 647 286 L647 275 L669 -59 L647 -69 L615 -69 Q573 -69 562 113 Q573 641 604 771 L604 781 L595 781 Q400 513 335 513 L324 513 Q303 513 303 535 L303 565 Q788 1164 820 1181 ZM647 620 L647 329 L939 426 Q939 521 950 641 Q942 803 917 803 Q647 631 647 620 ZM1316 502 L1402 502 Q1532 465 1532 426 L1532 405 Q1532 389 1499 372 L1488 372 Q1374 416 1219 448 L1219 459 Q1233 502 1316 502 Z" /><glyph glyph-name="uni76F4" unicode="&#x76f4;" d="M1035 1430 L1108 1429 L1108 1418 Q1108 1372 1047 1296 L1047 1283 L1217 1332 Q1266 1313 1266 1296 Q1266 1278 1205 1247 L1132 1247 Q1132 1208 1010 1174 Q965 1145 914 991 Q883 991 876 870 Q1069 966 1205 966 Q1279 911 1279 674 L1279 358 Q1230 -120 1230 -203 Q1242 -203 1242 -216 Q1255 -214 1279 -203 Q1571 -233 1571 -311 L1571 -349 Q1571 -372 1547 -373 L1534 -373 Q1368 -300 1279 -300 L1242 -300 Q1192 -300 1145 -312 L1084 -300 Q875 -312 828 -324 Q828 -312 816 -312 Q816 -337 571 -362 Q551 -349 523 -350 L523 -324 Q523 -293 730 -264 L730 -252 L707 -216 Q719 -81 719 17 Q719 29 730 29 Q730 41 719 41 Q742 341 742 504 Q719 504 719 528 L719 589 Q779 881 852 1112 L840 1112 Q720 1089 707 1089 L609 1089 Q545 1089 535 1124 L535 1162 Q962 1187 962 1320 Q993 1320 1035 1430 ZM828 723 Q840 700 840 686 Q816 683 816 662 L816 626 Q852 585 852 564 L974 576 L1084 576 L1084 540 Q1084 514 840 468 L840 455 Q840 301 816 151 Q828 130 828 90 L840 90 Q840 141 1120 187 L1169 163 Q1189 430 1205 430 Q1205 442 1193 443 L1205 589 Q1205 616 1193 639 Q1193 650 1205 649 Q1205 818 1145 905 Q828 807 828 723 ZM1059 418 L1096 419 Q1114 419 1132 382 L1132 370 Q939 309 888 309 Q852 321 852 332 Q852 392 1059 418 ZM876 54 L828 53 Q828 -240 755 -240 L755 -252 L779 -251 L1108 -216 L1108 -57 Q1157 -5 1157 41 L1157 113 L1108 113 L876 54 Z" /><glyph glyph-name="uni770B" unicode="&#x770b;" d="M1238 1406 L1383 1406 Q1410 1401 1410 1379 L1410 1366 Q1410 1327 1251 1313 Q1185 1174 1185 1143 L1344 1143 Q1422 1135 1422 1103 L1422 1077 Q1422 1055 1330 1037 L1264 1051 L1159 1051 Q1137 1051 1094 906 L1107 906 Q1378 972 1527 972 Q1547 972 1567 933 Q1567 884 1107 827 Q1041 827 936 473 Q830 275 698 -107 L724 -93 L724 -120 Q640 -422 593 -422 L554 -422 Q501 -404 501 -317 Q501 -159 896 774 Q837 749 724 749 L632 749 Q565 749 554 788 L554 801 Q554 821 607 840 Q679 827 711 827 Q1002 827 1002 999 Q1015 999 1028 1037 Q896 1024 830 1024 L790 1024 Q764 1024 764 1051 L764 1064 Q764 1101 1081 1143 Q1159 1296 1159 1313 L1147 1313 Q1095 1313 817 1287 L804 1313 Q892 1406 1238 1406 ZM1541 696 Q1593 640 1593 564 L1593 -212 Q1593 -279 1554 -291 L1514 -291 Q1484 -291 1435 -93 Q1266 -133 1212 -133 L1081 -133 Q1059 -133 1028 -80 L1028 11 Q1028 657 1081 657 L1134 644 Q1230 696 1541 696 ZM1134 551 L1134 486 Q1224 512 1291 512 L1435 512 L1501 498 L1501 591 L1488 617 Q1134 597 1134 551 ZM1120 354 L1120 235 L1134 235 L1461 288 L1488 288 L1488 407 L1475 407 Q1120 407 1120 354 ZM1159 143 L1120 143 L1120 -29 L1185 -15 L1185 -29 Q1488 47 1488 64 L1488 196 Q1224 143 1159 143 Z" /><glyph glyph-name="uni7B80" unicode="&#x7b80;" d="M1145 1617 Q1170 1614 1170 1594 Q1145 1397 1145 1301 L1157 1302 Q1508 1423 1595 1423 L1595 1398 Q1595 1366 1145 1265 Q1108 1219 1108 924 L1108 900 Q1108 882 1072 862 L1047 862 Q1029 862 1011 912 Q1011 1164 1120 1605 L1145 1617 ZM475 1544 L500 1544 L524 1533 Q427 1107 378 766 L354 766 Q345 766 317 802 Q317 994 475 1544 ZM926 1436 L939 1436 L939 1410 Q939 1375 524 1290 Q524 1278 512 1277 L512 1313 Q617 1362 926 1436 ZM646 1301 L670 1301 L658 1277 Q889 996 889 924 L853 900 L841 900 Q820 900 646 1191 Q624 1191 622 1252 L622 1277 Q625 1301 646 1301 ZM1230 1252 Q1527 1034 1535 948 L1535 935 L1473 935 Q1206 1158 1206 1240 L1230 1252 ZM1657 900 Q1742 802 1778 -526 Q1732 -561 1705 -561 Q1393 -428 1340 -428 L1340 -416 L1388 -416 Q1462 -416 1692 -488 L1692 -477 Q1692 321 1619 862 Q1520 862 1096 729 L1085 728 L1085 741 Q1204 826 1535 900 L1657 900 ZM561 790 L634 790 Q842 782 865 716 Q865 693 841 693 L792 693 Q792 732 561 766 L561 790 ZM584 607 L610 607 L610 595 Q610 420 596 -330 L596 -367 L610 -367 L610 -319 L634 -319 Q625 -513 610 -513 Q588 -526 561 -526 Q512 -461 512 -392 L512 -135 Q536 607 584 607 ZM1292 535 Q1364 535 1364 425 Q1388 190 1388 -209 Q1388 -272 1352 -282 L1316 -280 Q1266 -257 1266 -209 L1254 -208 Q1254 -268 1035 -269 Q1018 -269 999 -232 Q1243 72 1243 132 Q1166 133 987 23 L939 23 L950 -63 L950 -196 Q950 -260 913 -269 L889 -269 Q865 -269 865 -245 L865 -123 Q865 64 877 486 L901 497 Q926 497 939 376 L950 376 Q1024 441 1292 535 ZM939 303 L939 84 Q1146 205 1243 205 L1254 206 L1278 193 L1278 473 L1266 473 Q940 343 939 303 ZM1266 96 Q1266 72 1072 -196 L1157 -183 L1243 -184 Q1194 -111 1194 -87 Q1273 -161 1278 -161 L1278 96 L1266 96 Z" /><glyph glyph-name="uni7BA1" unicode="&#x7ba1;" d="M970 1564 L1001 1564 Q1033 1564 1047 1426 Q1125 1472 1295 1518 L1310 1487 L1310 1472 Q1310 1447 1047 1364 Q1023 1086 970 1086 L955 1086 Q924 1086 924 1117 Q970 1406 970 1564 ZM584 1533 Q600 1504 600 1487 L584 1349 Q711 1410 816 1410 L831 1379 L831 1364 Q818 1330 569 1256 Q526 961 492 961 L475 961 Q453 961 430 1009 Q513 1533 584 1533 ZM1140 1287 L1156 1287 Q1341 1244 1341 1117 L1341 1086 Q1341 1055 1310 1055 L1264 1055 Q1223 1055 1140 1287 ZM677 1195 Q766 1144 800 1086 Q800 1063 755 1040 L738 1040 Q712 1043 646 1178 L677 1195 ZM893 1023 L939 1023 Q967 1023 1033 916 Q1258 961 1481 961 L1681 961 Q1705 961 1742 900 L1742 869 Q1742 781 1419 684 L1419 700 Q1588 853 1588 869 L1573 869 Q1210 869 553 730 L553 761 Q565 805 939 916 Q893 992 893 1023 ZM399 838 L414 838 L444 823 Q444 792 430 792 Q449 464 475 344 L444 328 L414 328 Q369 328 352 545 Q352 838 399 838 ZM893 777 Q924 772 924 746 L924 623 Q1174 684 1279 684 L1341 684 Q1387 684 1387 623 Q1387 598 1264 468 Q1310 468 1310 437 L1310 421 Q1271 344 909 314 L909 174 Q1013 205 1233 220 Q1464 210 1464 143 Q1464 59 1295 -120 Q1419 -120 1419 -166 L1419 -197 Q1419 -266 1001 -289 Q961 -289 893 -243 L893 -258 Q909 -469 909 -521 L861 -552 Q785 -552 785 -166 Q804 777 893 777 ZM909 545 L909 375 Q1067 375 1264 606 L1249 606 L909 545 ZM893 97 L893 -212 Q931 -187 1187 -134 L1326 81 Q1326 112 1295 112 L1078 112 L893 97 Z" /><glyph glyph-name="uni80FD" unicode="&#x80fd;" d="M589 1595 L651 1595 Q675 1591 675 1570 L675 1547 Q388 1056 345 924 L358 924 Q671 997 760 1132 L748 1192 Q760 1241 809 1241 Q1138 1144 1138 1046 Q1138 1027 1089 997 L1066 997 Q1024 1071 980 1071 Q846 1095 834 1095 Q533 790 248 790 L212 851 Q212 895 480 1388 Q499 1388 589 1595 ZM1382 1082 L1395 1084 Q1470 1082 1491 949 L1491 913 Q1455 912 1455 888 L1455 876 Q1455 858 1491 839 L1613 851 L1674 838 L1674 815 Q1662 778 1601 778 L1565 778 Q1553 779 1553 791 Q1455 761 1455 741 L1455 607 Q1455 595 1443 595 L1455 571 L1455 497 Q1711 552 1711 658 L1736 657 Q1753 657 1772 619 L1772 595 Q1755 528 1443 400 L1443 218 Q1443 166 1431 84 Q1455 -30 1503 -76 Q1643 -29 1846 132 L1858 132 Q1882 129 1882 108 L1882 84 Q1638 -173 1516 -173 L1491 -172 Q1374 -173 1345 22 L1345 180 Q1345 209 1333 231 Q1345 251 1345 278 L1345 328 Q1345 351 1322 351 L1126 290 L1114 290 Q1084 315 1066 315 Q1066 367 1333 450 L1345 449 Q1357 592 1357 657 L1357 741 L1333 743 L1212 729 L1199 754 L1199 790 Q1199 820 1370 838 L1370 936 L1357 997 L1370 997 L1357 1022 L1357 1058 Q1362 1082 1382 1082 ZM882 815 L956 815 Q1057 815 1077 -76 L1077 -465 Q1077 -539 1004 -539 Q874 -449 772 -271 L785 -271 Q924 -405 968 -405 L968 -245 Q968 -161 956 22 L930 10 Q627 -14 614 -14 L614 -489 Q614 -507 578 -526 L553 -526 Q535 -526 517 -489 L517 -148 Q517 661 627 790 L639 790 Q639 741 651 741 Q834 815 882 815 ZM614 437 L627 437 Q785 509 944 509 L944 559 Q944 754 895 754 Q627 727 627 619 Q614 498 614 437 ZM614 95 L627 95 Q826 239 944 413 L944 437 Q781 437 614 351 L614 95 ZM651 59 L663 59 Q754 84 834 84 L930 84 L956 72 L956 363 L651 59 Z" /><glyph glyph-name="uni8650" unicode="&#x8650;" d="M961 1801 L987 1764 L987 1752 Q987 1725 975 1704 Q975 1692 987 1692 L949 1339 L975 1339 Q1201 1375 1242 1375 Q1291 1356 1291 1339 Q1278 1289 1230 1289 L1230 1301 L1133 1277 L1108 1289 Q954 1255 901 1155 Q901 1143 889 1143 L851 1143 Q851 1203 816 1203 L803 1203 Q778 1203 718 961 L742 948 Q892 972 1071 1034 Q1091 1229 1145 1229 L1145 1241 L1168 1241 Q1168 1197 1156 1131 Q1168 1107 1168 1095 L1156 1095 Q1168 1071 1168 1058 Q1344 1107 1376 1107 L1388 1107 Q1406 1107 1424 1070 Q1421 1037 1156 961 L1145 900 L1145 754 L1168 717 L1595 864 L1619 826 L1619 790 Q1619 756 1145 607 Q1047 646 1047 729 L1047 936 Q750 864 706 864 Q670 773 609 437 Q536 116 536 -2 L560 -2 Q969 108 999 109 L1023 328 L1010 328 Q880 306 840 279 Q768 295 768 315 L768 352 Q818 352 1047 425 Q1091 583 1181 583 Q1510 503 1510 473 L1510 461 Q1509 446 1450 413 L1437 413 Q1424 413 1424 425 L1400 413 L1388 413 Q1376 413 1376 425 Q1120 376 1120 303 Q1108 303 1108 132 Q1219 133 1412 169 Q1424 169 1424 156 L1510 169 L1643 169 Q1709 169 1741 108 L1741 96 Q1741 54 1608 23 L1559 23 L1571 85 L1450 72 L1437 72 Q1424 72 1424 84 L1327 59 Q1314 59 1314 72 Q1083 47 1083 11 Q1071 -54 1071 -111 L1071 -161 L1083 -282 Q1280 -244 1450 -245 L1498 -245 Q1669 -245 1669 -294 Q1669 -357 1631 -367 Q1528 -342 1498 -342 Q1485 -342 1485 -354 L1424 -342 L1327 -342 Q1059 -373 1059 -440 L1047 -440 Q999 -427 999 -390 L913 -392 Q901 -392 901 -379 L877 -392 Q816 -359 816 -342 Q840 -312 840 -293 L877 -294 Q889 -294 889 -306 L913 -294 L975 -294 Q975 -280 987 -257 Q987 -233 975 -233 L987 -147 L987 -2 Q987 23 949 23 Q588 -79 524 -110 L463 -513 L486 -561 L463 -623 L474 -684 Q467 -745 401 -745 Q353 -733 353 -671 L353 -623 Q353 -561 377 -477 Q377 -464 365 -464 Q474 294 632 1022 Q632 1037 658 1155 L620 1156 Q609 1155 451 1107 L438 1107 Q438 1125 414 1155 Q414 1191 694 1265 Q694 1329 851 1387 Q904 1789 925 1789 Q938 1789 961 1801 ZM1291 1679 Q1412 1680 1498 1582 L1498 1546 Q1498 1520 1473 1520 L1437 1520 Q1374 1582 1327 1582 L1303 1570 L1278 1582 Q1175 1571 1108 1570 L1096 1595 L1096 1607 Q1096 1651 1291 1679 ZM1156 486 L1156 449 L1168 449 L1230 461 L1230 486 Q1193 486 1193 498 Q1169 486 1156 486 Z" /><glyph glyph-name="uni884C" unicode="&#x884c;" d="M882 1511 L882 1492 Q780 1371 473 812 L433 791 Q394 791 394 829 Q394 953 823 1511 L882 1511 ZM1604 1239 L1621 1199 L1621 1180 Q1377 1142 1057 1063 L1057 1102 Q1219 1161 1604 1239 ZM939 1121 L960 1121 L960 1102 Q780 777 726 733 Q746 571 765 -320 L726 -339 L668 -340 L648 -262 Q686 484 686 614 L686 635 L668 635 Q453 238 394 70 L297 70 L297 129 Q321 353 901 1102 L939 1121 ZM1797 908 L1797 849 Q1155 674 1076 674 Q1040 693 1019 693 Q1037 730 1037 751 L1115 733 Q1448 829 1797 908 ZM1564 674 L1604 674 Q1661 674 1681 -67 Q1649 -360 1506 -360 Q1194 -272 1194 -222 Q1417 -262 1506 -262 Q1543 -198 1543 -165 Q1564 465 1564 674 Z" /><glyph glyph-name="uni8981" unicode="&#x8981;" d="M1254 1565 L1275 1533 L1275 1513 Q1275 1481 1116 1459 L1127 1438 L1127 1406 Q1127 1353 1116 1246 L1382 1268 Q1723 1268 1723 1129 L1723 1087 Q1723 966 1414 779 Q1347 746 1233 736 L1179 746 L1179 768 Q1376 768 1626 1076 Q1637 1095 1637 1119 L1637 1141 Q1525 1183 1446 1183 Q1363 1183 1105 1162 Q1105 954 1063 873 Q1281 927 1361 927 L1382 927 Q1403 924 1403 906 L1403 895 Q1403 846 690 704 L669 736 Q669 768 818 800 L818 811 Q765 882 765 1087 L755 1087 Q467 1014 467 970 Q467 880 541 640 Q541 618 521 618 L510 618 Q425 618 372 1013 Q382 1162 414 1162 Q435 1158 435 1141 L435 1045 L446 1045 Q526 1108 765 1183 L765 1374 Q695 1353 669 1353 L648 1353 Q627 1353 627 1374 L627 1396 Q803 1496 1190 1565 L1254 1565 ZM838 1385 L838 1203 L849 1203 Q1031 1203 1031 1289 Q1041 1378 1063 1449 L1052 1449 Q838 1408 838 1385 ZM849 1108 Q849 992 892 832 Q1010 853 1010 873 L1010 1151 Q849 1123 849 1108 ZM882 715 Q897 715 913 683 L913 640 Q913 583 892 385 L903 385 Q1200 429 1200 470 Q1200 587 1233 587 Q1265 580 1265 502 L1265 460 L1605 502 L1626 470 L1626 438 Q1626 398 1254 363 Q1187 28 1094 -125 L1094 -136 Q1239 -200 1498 -232 L1498 -222 Q1498 -181 1435 12 L1456 12 Q1556 -156 1594 -264 L1594 -296 Q1580 -338 1509 -338 Q1296 -338 1031 -222 L1031 -232 Q909 -403 786 -403 Q669 -403 583 -264 L583 -253 Q667 -317 722 -317 Q873 -317 956 -157 Q797 4 797 183 L797 267 L786 267 Q670 246 382 173 L372 194 L372 215 Q412 263 808 363 Q864 715 882 715 ZM882 289 L882 235 Q882 33 1020 -73 Q1127 158 1168 342 Q1141 342 882 289 Z" /><glyph glyph-name="uni8BD5" unicode="&#x8bd5;" d="M1323 1478 L1389 1478 Q1421 1115 1438 1041 L1421 1041 L1438 1008 L1438 861 Q1507 861 1552 926 Q1626 895 1633 861 Q1633 816 1471 780 L1471 747 L1486 634 L1471 634 Q1552 72 1746 -244 Q1805 -324 1844 -324 L1844 -373 Q1844 -422 1779 -422 Q1614 -422 1421 439 Q1393 747 1323 747 Q1293 732 1275 732 L1275 747 L886 635 L869 667 Q869 732 1356 829 Q1356 987 1308 1431 Q1323 1462 1323 1478 ZM1601 1186 Q1724 1126 1779 1041 L1779 1023 Q1779 991 1730 992 Q1570 1106 1552 1106 L1552 1154 Q1552 1186 1601 1186 ZM545 1121 L577 1121 Q804 1021 804 943 L788 943 Q512 997 512 1106 L545 1121 ZM593 585 Q652 585 690 504 L690 472 Q641 108 641 0 L659 0 Q804 173 804 228 L837 228 L837 130 Q709 -130 626 -130 Q580 -130 545 -15 L626 504 L593 520 Q282 439 267 439 L252 473 Q252 528 593 585 ZM1227 520 Q1260 515 1260 487 L1260 472 Q1260 446 1145 389 Q1145 374 1162 374 L1112 -48 L1130 -48 Q1155 -48 1341 50 Q1341 33 1356 33 Q1356 2 1210 -97 Q1210 -143 934 -211 L919 -178 L919 -162 Q919 -140 1032 -81 Q1045 81 1064 81 Q1064 98 1048 98 Q1080 318 1080 374 Q886 310 869 309 L837 309 L837 325 Q837 370 1227 520 Z" /><glyph glyph-name="uni8FD9" unicode="&#x8fd9;" d="M856 1456 Q966 1445 1264 1291 L1264 1243 Q1264 1206 1214 1210 Q1162 1216 831 1447 L856 1456 ZM1524 1142 Q1548 1136 1548 1115 L1548 1102 Q1548 1032 768 922 L695 928 Q677 931 658 969 Q713 964 1524 1142 ZM1202 866 L1214 865 Q1266 842 1289 794 Q1289 761 1202 482 Q1541 263 1635 30 Q1611 -24 1586 -26 L1548 -23 Q1310 306 1202 345 Q1202 371 1178 372 L1164 374 Q1063 63 1004 68 L942 75 Q900 79 868 244 L893 241 Q893 202 954 161 Q1003 190 1091 443 Q877 589 831 593 Q831 569 807 571 L795 572 L795 584 Q808 645 893 636 Q1011 600 1128 526 Q1214 780 1214 802 L1202 866 ZM485 727 Q622 666 633 637 Q633 619 597 604 Q447 655 447 693 Q447 711 485 727 ZM670 362 L683 337 L683 323 Q683 289 559 101 L571 99 Q658 29 658 -70 Q658 -91 633 -142 Q962 -285 1116 -301 L1164 -306 Q1446 -333 1647 -206 L1659 -231 Q1426 -443 1289 -429 Q1222 -436 1178 -431 Q807 -394 472 -112 Q472 -88 597 -89 L597 -14 Q597 9 497 95 L497 132 L621 306 L559 299 L460 309 Q435 311 435 337 L670 362 Z" /><glyph glyph-name="uni90FD" unicode="&#x90fd;" d="M780 1515 L791 1515 Q817 1511 817 1491 L817 1344 Q861 1344 1023 1406 L1048 1406 L1048 1393 Q1048 1335 987 1296 Q803 978 803 917 L817 917 Q1037 955 1084 1015 L1133 1015 L1133 967 Q957 837 768 821 Q727 821 488 261 L426 42 Q438 -25 438 -55 Q415 -59 415 -80 L415 -141 L353 -153 Q333 -153 305 -80 Q305 81 634 796 Q634 809 622 809 L536 784 L536 796 Q421 760 366 761 L341 796 L341 821 Q474 882 645 906 Q694 1031 707 1174 Q694 1198 694 1211 L670 1211 Q536 1162 463 1162 L426 1162 Q403 1162 403 1199 Q403 1243 572 1260 Q597 1283 719 1320 Q743 1515 780 1515 ZM780 1137 L803 1125 Q803 1146 865 1260 L829 1260 Q807 1260 791 1150 Q780 1150 780 1137 ZM1315 1041 L1340 1003 L1340 943 Q1461 955 1523 955 Q1620 955 1620 857 Q1620 741 1450 602 L1437 578 L1461 565 L1511 565 Q1790 565 1790 419 Q1790 208 1547 114 L1534 114 Q1398 127 1364 164 L1352 164 Q1364 77 1364 66 Q1364 53 1352 29 L1364 -44 Q1364 -71 1352 -92 Q1352 -104 1364 -104 Q1338 -458 1304 -458 L1242 -458 L1218 -409 Q1254 -327 1279 -80 Q1279 -65 1266 42 Q1266 54 1279 54 L1266 114 L1266 383 Q1266 497 1279 614 Q1266 668 1266 809 L1266 834 L1254 834 L1218 809 L1206 809 Q1182 809 1182 834 L1182 857 Q1202 908 1266 906 L1266 1003 Q1266 1022 1315 1041 ZM1352 834 L1352 614 Q1521 763 1547 834 L1547 869 L1485 882 L1401 882 Q1382 882 1352 834 ZM962 724 Q1072 685 1072 602 L1072 237 Q1072 224 1060 224 Q1060 212 1072 212 Q1048 -15 1010 -104 L962 -104 Q938 -103 938 19 Q720 -117 670 -117 Q660 -117 597 -44 Q637 602 682 603 Q694 602 694 626 L768 626 Q892 724 962 724 ZM719 359 L719 310 Q768 333 913 359 L950 359 Q975 359 975 321 L987 321 L987 590 Q987 607 950 626 Q851 626 731 455 Q719 408 719 359 ZM1352 371 L1352 200 Q1375 212 1389 212 Q1450 175 1485 175 Q1705 259 1705 407 L1705 455 Q1631 492 1607 492 L1413 493 Q1401 492 1401 504 Q1352 504 1352 371 ZM694 175 L694 -7 Q975 53 975 164 L975 310 Q840 277 694 175 Z" /><glyph glyph-name="uniFF01" unicode="&#xff01;" d="M1000 1099 Q1059 1099 1059 784 L1059 450 Q1019 402 1019 371 L1000 371 Q971 371 941 430 L941 686 Q941 1099 1000 1099 ZM1000 154 L1039 -62 L980 -101 L941 -101 Q941 -80 921 -42 Q945 154 1000 154 Z" /><glyph glyph-name="uniFF0C" unicode="&#xff0c;" d="M373 167 L432 167 Q570 167 570 29 L570 -128 Q570 -315 275 -463 L255 -423 Q472 -261 472 -69 Q341 -69 314 10 L314 108 Q314 136 373 167 Z" /></font>
</defs>
</svg>
