<?xml version="1.0" standalone="no"?><!DOCTYPE svg PUBLIC "-//W3C//DTD SVG 1.1//EN" "http://www.w3.org/Graphics/SVG/1.1/DTD/svg11.dtd" ><svg xmlns="http://www.w3.org/2000/svg"><metadata></metadata><defs><font id="Weatherly Systems, Inc.  DigifaceWide Regular" horiz-adv-x="1362"><font-face font-family="DigifaceWide" font-weight="5" font-stretch="normal" units-per-em="1000" panose-1="0 0 0 0 0 0 0 0 0 0" ascent="1001" descent="-219" x-height="0" bbox="-21 -128 1331 720" underline-thickness="0" underline-position="0" unicode-range="U+0021-201d" /><missing-glyph horiz-adv-x="900"  /><glyph glyph-name="exclam" unicode="!" d="M194 212 L65 277 L65 634 L194 720 L194 212 ZM194 0 L65 0 L65 155 L194 155 L194 0 Z" /><glyph glyph-name="quotedbl" unicode="&quot;" d="M356 720 L326 495 L231 495 L261 720 L356 720 ZM200 720 L170 495 L75 495 L105 720 L200 720 Z" /><glyph glyph-name="numbersign" unicode="#" d="M801 491 L786 446 L614 446 L560 274 L732 274 L717 229 L545 229 L477 16 L410 16 L477 229 L315 229 L248 16 L180 16 L248 229 L75 229 L90 274 L263 274 L317 446 L144 446 L158 491 L332 491 L398 704 L465 704 L399 491 L561 491 L627 704 L695 704 L629 491 L801 491 ZM546 446 L384 446 L330 274 L492 274 L546 446 Z" /><glyph glyph-name="percent" unicode="%" d="M1085 720 L740 341 L668 428 L933 720 L1085 720 ZM1331 104 L1265 61 L1202 104 L1202 273 L1263 317 L1331 274 L1331 104 ZM1244 329 L1178 282 L921 282 L855 328 L921 369 L1179 369 L1244 329 ZM509 675 L444 634 L186 634 L122 675 L186 720 L446 720 L509 675 ZM596 451 L530 407 L467 450 L467 620 L530 663 L596 621 L596 451 ZM902 103 L836 60 L768 104 L768 273 L836 316 L902 273 L902 103 ZM1244 45 L1179 0 L920 0 L855 45 L921 86 L1178 86 L1244 45 ZM509 392 L444 353 L186 353 L120 392 L188 438 L444 438 L509 392 ZM167 450 L101 407 L33 450 L33 620 L101 662 L167 619 L167 450 ZM722 320 L431 0 L279 0 L572 320 L722 320 Z" /><glyph glyph-name="parenleft" unicode="(" d="M383 720 L287 634 L216 634 L150 676 L216 720 L383 720 ZM194 421 L65 371 L65 619 L129 662 L194 619 L194 421 ZM194 101 L129 58 L65 101 L65 349 L194 306 L194 101 ZM383 0 L216 0 L150 44 L216 86 L287 86 L383 0 Z" /><glyph glyph-name="parenright" unicode=")" d="M255 676 L189 634 L119 634 L21 720 L189 720 L255 676 ZM339 371 L210 414 L210 619 L275 662 L339 619 L339 371 ZM339 101 L275 58 L210 101 L210 299 L339 349 L339 101 ZM255 44 L189 0 L21 0 L119 86 L189 86 L255 44 Z" /><glyph glyph-name="comma" unicode="," d="M183 155 L113 -94 L-21 -94 L50 155 L183 155 Z" /><glyph glyph-name="hyphen" unicode="-" d="M482 302 L395 216 L33 216 L120 302 L482 302 Z" /><glyph glyph-name="period" unicode="." d="M162 0 L33 0 L33 155 L162 155 L162 0 Z" /><glyph glyph-name="slash" unicode="/" d="M839 720 L494 341 L420 428 L686 720 L839 720 ZM474 320 L185 0 L33 0 L324 320 L474 320 Z" /><glyph glyph-name="zero" unicode="0" d="M680 371 L551 421 L551 619 L615 662 L680 619 L680 371 ZM596 676 L530 634 L216 634 L150 676 L216 720 L530 720 L596 676 ZM680 101 L615 58 L551 101 L551 306 L680 349 L680 101 ZM194 421 L65 371 L65 619 L129 662 L194 619 L194 421 ZM194 101 L129 58 L65 101 L65 349 L194 306 L194 101 ZM596 44 L530 0 L216 0 L150 44 L216 86 L530 86 L596 44 Z" /><glyph glyph-name="one" unicode="1" d="M437 371 L308 421 L308 634 L437 720 L437 371 ZM437 0 L308 86 L308 306 L437 349 L437 0 Z" /><glyph glyph-name="two" unicode="2" d="M680 371 L551 421 L551 619 L615 662 L680 619 L680 371 ZM596 676 L530 634 L65 634 L216 720 L530 720 L596 676 ZM651 360 L530 320 L216 320 L95 360 L216 407 L530 407 L651 360 ZM680 0 L216 0 L150 44 L216 86 L557 86 L680 0 ZM194 101 L129 58 L65 101 L65 349 L194 306 L194 101 Z" /><glyph glyph-name="three" unicode="3" d="M626 371 L497 421 L497 619 L561 662 L626 619 L626 371 ZM542 676 L476 634 L162 634 L38 720 L476 720 L542 676 ZM626 101 L561 58 L497 101 L497 306 L626 349 L626 101 ZM597 360 L476 320 L162 320 L41 360 L162 407 L476 407 L597 360 ZM542 44 L476 0 L38 0 L162 86 L476 86 L542 44 Z" /><glyph glyph-name="four" unicode="4" d="M680 371 L551 421 L551 634 L680 720 L680 371 ZM194 421 L65 371 L65 720 L194 634 L194 421 ZM651 360 L530 320 L216 320 L95 360 L216 407 L530 407 L651 360 ZM680 0 L551 86 L551 306 L680 349 L680 0 Z" /><glyph glyph-name="five" unicode="5" d="M653 720 L530 634 L216 634 L150 676 L216 720 L653 720 ZM680 101 L615 58 L551 101 L551 306 L680 349 L680 101 ZM651 360 L530 320 L216 320 L95 360 L216 407 L530 407 L651 360 ZM194 421 L65 371 L65 619 L129 662 L194 619 L194 421 ZM596 44 L530 0 L65 0 L189 86 L530 86 L596 44 Z" /><glyph glyph-name="six" unicode="6" d="M653 720 L530 634 L216 634 L150 676 L216 720 L653 720 ZM680 101 L615 58 L551 101 L551 306 L680 349 L680 101 ZM651 360 L530 320 L216 320 L95 360 L216 407 L530 407 L651 360 ZM194 421 L65 371 L65 619 L129 662 L194 619 L194 421 ZM194 101 L129 58 L65 101 L65 349 L194 306 L194 101 ZM596 44 L530 0 L216 0 L150 44 L216 86 L530 86 L596 44 Z" /><glyph glyph-name="seven" unicode="7" d="M594 371 L465 421 L465 619 L594 706 L594 371 ZM573 720 L443 634 L129 634 L0 720 L573 720 ZM594 0 L465 86 L465 306 L594 349 L594 0 Z" /><glyph glyph-name="eight" unicode="8" d="M680 371 L551 421 L551 619 L615 662 L680 619 L680 371 ZM596 676 L530 634 L216 634 L150 676 L216 720 L530 720 L596 676 ZM680 101 L615 58 L551 101 L551 306 L680 349 L680 101 ZM651 360 L530 320 L216 320 L95 360 L216 407 L530 407 L651 360 ZM194 421 L65 371 L65 619 L129 662 L194 619 L194 421 ZM194 101 L129 58 L65 101 L65 349 L194 306 L194 101 ZM596 44 L530 0 L216 0 L150 44 L216 86 L530 86 L596 44 Z" /><glyph glyph-name="nine" unicode="9" d="M680 371 L551 414 L551 619 L615 662 L680 619 L680 371 ZM596 676 L530 634 L216 634 L150 676 L216 720 L530 720 L596 676 ZM680 101 L615 58 L551 101 L551 299 L680 349 L680 101 ZM651 360 L530 320 L216 320 L95 360 L216 407 L530 407 L651 360 ZM194 414 L65 371 L65 619 L129 662 L194 619 L194 414 ZM596 44 L530 0 L92 0 L216 86 L530 86 L596 44 Z" /><glyph glyph-name="colon" unicode=":" d="M173 320 L44 320 L44 468 L173 468 L173 320 ZM173 0 L44 0 L44 155 L173 155 L173 0 Z" /><glyph glyph-name="semicolon" unicode=";" d="M177 320 L48 320 L48 468 L177 468 L177 320 ZM183 155 L113 -94 L-21 -94 L50 155 L183 155 Z" /><glyph glyph-name="less" unicode="&lt;" d="M707 122 L75 360 L707 598 L707 527 L252 360 L707 193 L707 122 Z" /><glyph glyph-name="equal" unicode="=" d="M680 473 L617 387 L65 387 L128 473 L680 473 ZM680 336 L617 249 L65 249 L128 336 L680 336 Z" /><glyph glyph-name="greater" unicode="&gt;" d="M707 360 L75 122 L75 193 L530 360 L75 527 L75 598 L707 360 Z" /><glyph glyph-name="C" unicode="c" d="M659 720 L530 634 L216 634 L150 676 L216 720 L659 720 ZM194 414 L65 371 L65 619 L129 662 L194 619 L194 414 ZM659 0 L216 0 L150 44 L216 86 L530 86 L659 0 ZM194 101 L129 58 L65 101 L65 349 L194 299 L194 101 Z" /><glyph glyph-name="D" unicode="d" d="M680 371 L551 421 L551 619 L615 662 L680 619 L680 371 ZM596 676 L530 634 L216 634 L86 720 L530 720 L596 676 ZM194 421 L65 371 L65 706 L194 619 L194 421 ZM680 101 L615 58 L551 101 L551 306 L680 349 L680 101 ZM194 101 L65 14 L65 349 L194 306 L194 101 ZM596 44 L530 0 L86 0 L216 86 L530 86 L596 44 Z" /><glyph glyph-name="E" unicode="e" d="M659 720 L530 634 L216 634 L86 720 L659 720 ZM194 421 L65 371 L65 706 L194 619 L194 421 ZM651 360 L530 320 L216 320 L95 360 L216 407 L530 407 L651 360 ZM659 0 L86 0 L216 86 L530 86 L659 0 ZM194 101 L65 14 L65 349 L194 306 L194 101 Z" /><glyph glyph-name="I" unicode="i" d="M194 371 L65 421 L65 634 L194 720 L194 371 ZM194 0 L65 86 L65 306 L194 349 L194 0 Z" /><glyph glyph-name="K" unicode="k" d="M680 661 L312 424 L221 424 L221 486 L585 720 L680 720 L680 661 ZM194 421 L65 371 L65 720 L194 634 L194 421 ZM651 360 L530 320 L216 320 L95 360 L216 407 L530 407 L651 360 ZM680 0 L551 86 L551 306 L680 349 L680 0 ZM194 86 L65 0 L65 349 L194 306 L194 86 Z" /><glyph glyph-name="L" unicode="l" d="M194 421 L65 371 L65 720 L194 634 L194 421 ZM680 14 L551 101 L551 306 L680 349 L680 14 ZM659 0 L86 0 L216 86 L530 86 L659 0 ZM194 101 L65 14 L65 349 L194 306 L194 101 Z" /><glyph glyph-name="N" unicode="n" d="M680 371 L551 421 L551 619 L680 706 L680 371 ZM659 720 L530 634 L216 634 L86 720 L659 720 ZM194 421 L65 371 L65 706 L194 619 L194 421 ZM680 0 L551 86 L551 306 L680 349 L680 0 ZM194 86 L65 0 L65 349 L194 306 L194 86 Z" /><glyph glyph-name="O" unicode="o" d="M680 371 L551 421 L551 619 L615 662 L680 619 L680 371 ZM596 676 L530 634 L216 634 L150 676 L216 720 L530 720 L596 676 ZM680 101 L615 58 L551 101 L551 306 L680 349 L680 101 ZM194 421 L65 371 L65 619 L129 662 L194 619 L194 421 ZM194 101 L129 58 L65 101 L65 349 L194 306 L194 101 ZM596 44 L530 0 L216 0 L150 44 L216 86 L530 86 L596 44 Z" /><glyph glyph-name="P" unicode="p" d="M680 371 L551 421 L551 619 L615 662 L680 619 L680 371 ZM596 676 L530 634 L216 634 L86 720 L530 720 L596 676 ZM194 421 L65 371 L65 706 L194 619 L194 421 ZM651 360 L530 320 L216 320 L95 360 L216 407 L530 407 L651 360 ZM194 86 L65 0 L65 349 L194 306 L194 86 Z" /><glyph glyph-name="S" unicode="s" d="M680 720 L540 634 L216 634 L150 676 L216 720 L680 720 ZM680 101 L615 58 L551 101 L551 306 L680 349 L680 101 ZM651 360 L530 320 L216 320 L95 360 L216 407 L530 407 L651 360 ZM194 421 L65 371 L65 619 L129 662 L194 619 L194 421 ZM596 44 L530 0 L65 0 L206 86 L530 86 L596 44 Z" /><glyph glyph-name="T" unicode="t" d="M627 720 L524 634 L384 634 L311 684 L233 634 L92 634 L-11 720 L627 720 ZM374 404 L309 362 L243 404 L243 616 L309 663 L374 616 L374 404 ZM374 47 L308 0 L242 47 L242 305 L309 351 L374 305 L374 47 Z" /><glyph glyph-name="U" unicode="u" d="M680 371 L551 421 L551 637 L680 720 L680 371 ZM194 421 L65 371 L65 720 L194 637 L194 421 ZM680 101 L615 58 L551 101 L551 306 L680 349 L680 101 ZM194 101 L129 58 L65 101 L65 349 L194 306 L194 101 ZM596 44 L530 0 L216 0 L150 44 L216 86 L530 86 L596 44 Z" /><glyph glyph-name="V" unicode="v" d="M680 371 L551 421 L551 619 L680 706 L680 371 ZM194 421 L65 371 L65 706 L194 619 L194 421 ZM683 358 L390 0 L390 180 L513 329 L683 358 ZM357 -1 L65 359 L234 329 L357 180 L357 -1 Z" /><glyph glyph-name="X" unicode="x" d="M623 649 L411 370 L344 370 L344 470 L533 720 L623 720 L623 649 ZM314 370 L246 370 L33 652 L33 720 L126 720 L314 470 L314 370 ZM623 0 L530 0 L344 248 L344 350 L411 350 L623 71 L623 0 ZM314 248 L125 0 L33 0 L33 73 L246 350 L314 350 L314 248 Z" /><glyph glyph-name="Y" unicode="y" d="M680 371 L551 421 L551 634 L680 720 L680 371 ZM194 421 L65 371 L65 720 L194 634 L194 421 ZM651 360 L530 320 L216 320 L95 360 L216 407 L530 407 L651 360 ZM441 50 L372 0 L309 50 L309 301 L441 301 L441 50 Z" /><glyph glyph-name="bracketleft" unicode="[" d="M389 720 L260 634 L216 634 L86 720 L389 720 ZM194 421 L65 371 L65 706 L194 619 L194 421 ZM194 101 L65 14 L65 349 L194 306 L194 101 ZM389 0 L86 0 L216 86 L260 86 L389 0 Z" /><glyph glyph-name="bracketright" unicode="]" d="M314 720 L183 634 L140 634 L11 720 L314 720 ZM335 371 L206 414 L206 619 L335 706 L335 371 ZM335 14 L206 101 L206 299 L335 349 L335 14 ZM314 0 L11 0 L140 86 L183 86 L314 0 Z" /><glyph glyph-name="underscore" unicode="_" d="M615 -27 L75 -27 L75 0 L615 0 L615 -27 Z" /><glyph glyph-name="a" unicode="a" d="M680 371 L551 421 L551 619 L680 706 L680 371 ZM659 720 L530 634 L216 634 L86 720 L659 720 ZM194 421 L65 371 L65 706 L194 619 L194 421 ZM651 360 L530 320 L216 320 L95 360 L216 407 L530 407 L651 360 ZM680 0 L551 86 L551 306 L680 349 L680 0 ZM194 86 L65 0 L65 349 L194 306 L194 86 Z" /><glyph glyph-name="b" unicode="b" d="M680 371 L551 421 L551 619 L615 662 L680 619 L680 371 ZM596 676 L530 634 L216 634 L86 720 L530 720 L596 676 ZM194 421 L65 371 L65 706 L194 619 L194 421 ZM680 101 L615 58 L551 101 L551 306 L680 349 L680 101 ZM651 360 L530 320 L216 320 L95 360 L216 407 L530 407 L651 360 ZM194 101 L65 14 L65 349 L194 306 L194 101 ZM596 44 L530 0 L86 0 L216 86 L530 86 L596 44 Z" /><glyph glyph-name="c" unicode="c" d="M659 720 L530 634 L216 634 L150 676 L216 720 L659 720 ZM194 414 L65 371 L65 619 L129 662 L194 619 L194 414 ZM659 0 L216 0 L150 44 L216 86 L530 86 L659 0 ZM194 101 L129 58 L65 101 L65 349 L194 299 L194 101 Z" /><glyph glyph-name="d" unicode="d" d="M680 371 L551 421 L551 619 L615 662 L680 619 L680 371 ZM596 676 L530 634 L216 634 L86 720 L530 720 L596 676 ZM194 421 L65 371 L65 706 L194 619 L194 421 ZM680 101 L615 58 L551 101 L551 306 L680 349 L680 101 ZM194 101 L65 14 L65 349 L194 306 L194 101 ZM596 44 L530 0 L86 0 L216 86 L530 86 L596 44 Z" /><glyph glyph-name="e" unicode="e" d="M659 720 L530 634 L216 634 L86 720 L659 720 ZM194 421 L65 371 L65 706 L194 619 L194 421 ZM651 360 L530 320 L216 320 L95 360 L216 407 L530 407 L651 360 ZM659 0 L86 0 L216 86 L530 86 L659 0 ZM194 101 L65 14 L65 349 L194 306 L194 101 Z" /><glyph glyph-name="f" unicode="f" d="M659 720 L530 634 L216 634 L86 720 L659 720 ZM194 421 L65 371 L65 706 L194 619 L194 421 ZM651 360 L530 320 L216 320 L95 360 L216 407 L530 407 L651 360 ZM194 86 L65 0 L65 349 L194 306 L194 86 Z" /><glyph glyph-name="g" unicode="g" d="M653 720 L530 634 L216 634 L150 676 L216 720 L653 720 ZM651 360 L530 320 L410 320 L288 360 L410 407 L530 407 L651 360 ZM680 101 L615 58 L551 101 L551 306 L680 349 L680 101 ZM194 421 L65 371 L65 619 L129 662 L194 619 L194 421 ZM194 101 L129 58 L65 101 L65 349 L194 306 L194 101 ZM596 44 L530 0 L216 0 L150 44 L216 86 L530 86 L596 44 Z" /><glyph glyph-name="h" unicode="h" d="M680 371 L551 421 L551 634 L680 720 L680 371 ZM194 421 L65 371 L65 720 L194 634 L194 421 ZM651 360 L530 320 L216 320 L95 360 L216 407 L530 407 L651 360 ZM680 0 L551 86 L551 306 L680 349 L680 0 ZM194 86 L65 0 L65 349 L194 306 L194 86 Z" /><glyph glyph-name="i" unicode="i" d="M194 371 L65 421 L65 634 L194 720 L194 371 ZM194 0 L65 86 L65 306 L194 349 L194 0 Z" /><glyph glyph-name="j" unicode="j" d="M680 371 L551 421 L551 634 L680 720 L680 371 ZM680 14 L551 101 L551 306 L680 349 L680 14 ZM659 0 L86 0 L216 86 L530 86 L659 0 ZM194 101 L65 14 L65 349 L194 306 L194 101 Z" /><glyph glyph-name="k" unicode="k" d="M680 661 L312 424 L221 424 L221 486 L585 720 L680 720 L680 661 ZM194 421 L65 371 L65 720 L194 634 L194 421 ZM651 360 L530 320 L216 320 L95 360 L216 407 L530 407 L651 360 ZM680 0 L551 86 L551 306 L680 349 L680 0 ZM194 86 L65 0 L65 349 L194 306 L194 86 Z" /><glyph glyph-name="l" unicode="l" d="M194 421 L65 371 L65 720 L194 634 L194 421 ZM680 14 L551 101 L551 306 L680 349 L680 14 ZM659 0 L86 0 L216 86 L530 86 L659 0 ZM194 101 L65 14 L65 349 L194 306 L194 101 Z" /><glyph glyph-name="m" unicode="m" d="M1166 371 L1037 421 L1037 619 L1166 705 L1166 371 ZM1145 720 L1014 634 L701 634 L615 690 L530 634 L213 634 L86 720 L1145 720 ZM680 398 L615 365 L551 398 L551 621 L615 665 L680 619 L680 398 ZM1166 0 L1037 86 L1037 306 L1166 349 L1166 0 ZM194 421 L65 371 L65 706 L194 619 L194 421 ZM680 72 L615 0 L551 72 L551 310 L615 349 L680 310 L680 72 ZM194 86 L65 0 L65 349 L194 306 L194 86 Z" /><glyph glyph-name="n" unicode="n" d="M680 371 L551 421 L551 619 L680 706 L680 371 ZM659 720 L530 634 L216 634 L86 720 L659 720 ZM194 421 L65 371 L65 706 L194 619 L194 421 ZM680 0 L551 86 L551 306 L680 349 L680 0 ZM194 86 L65 0 L65 349 L194 306 L194 86 Z" /><glyph glyph-name="o" unicode="o" d="M680 371 L551 421 L551 619 L615 662 L680 619 L680 371 ZM596 676 L530 634 L216 634 L150 676 L216 720 L530 720 L596 676 ZM680 101 L615 58 L551 101 L551 306 L680 349 L680 101 ZM194 421 L65 371 L65 619 L129 662 L194 619 L194 421 ZM194 101 L129 58 L65 101 L65 349 L194 306 L194 101 ZM596 44 L530 0 L216 0 L150 44 L216 86 L530 86 L596 44 Z" /><glyph glyph-name="p" unicode="p" d="M680 371 L551 421 L551 619 L615 662 L680 619 L680 371 ZM596 676 L530 634 L216 634 L86 720 L530 720 L596 676 ZM194 421 L65 371 L65 706 L194 619 L194 421 ZM651 360 L530 320 L216 320 L95 360 L216 407 L530 407 L651 360 ZM194 86 L65 0 L65 349 L194 306 L194 86 Z" /><glyph glyph-name="q" unicode="q" d="M680 371 L551 421 L551 619 L615 662 L680 619 L680 371 ZM596 676 L530 634 L216 634 L150 676 L216 720 L530 720 L596 676 ZM680 101 L615 58 L551 101 L551 306 L680 349 L680 101 ZM194 421 L65 371 L65 619 L129 662 L194 619 L194 421 ZM683 -128 L348 86 L527 86 L683 -12 L683 -128 ZM194 101 L129 58 L65 101 L65 349 L194 306 L194 101 ZM441 0 L216 0 L152 47 L216 86 L308 86 L441 0 Z" /><glyph glyph-name="r" unicode="r" d="M680 371 L551 421 L551 619 L615 662 L680 619 L680 371 ZM596 676 L530 634 L216 634 L86 720 L530 720 L596 676 ZM194 421 L65 371 L65 706 L194 619 L194 421 ZM651 360 L530 320 L216 320 L95 360 L216 407 L530 407 L651 360 ZM774 -1 L549 100 L393 306 L539 306 L774 -1 ZM194 101 L65 14 L65 349 L194 306 L194 101 Z" /><glyph glyph-name="s" unicode="s" d="M680 720 L540 634 L216 634 L150 676 L216 720 L680 720 ZM680 101 L615 58 L551 101 L551 306 L680 349 L680 101 ZM651 360 L530 320 L216 320 L95 360 L216 407 L530 407 L651 360 ZM194 421 L65 371 L65 619 L129 662 L194 619 L194 421 ZM596 44 L530 0 L65 0 L206 86 L530 86 L596 44 Z" /><glyph glyph-name="t" unicode="t" d="M627 720 L524 634 L384 634 L311 684 L233 634 L92 634 L-11 720 L627 720 ZM374 404 L309 362 L243 404 L243 616 L309 663 L374 616 L374 404 ZM374 47 L308 0 L242 47 L242 305 L309 351 L374 305 L374 47 Z" /><glyph glyph-name="u" unicode="u" d="M680 371 L551 421 L551 637 L680 720 L680 371 ZM194 421 L65 371 L65 720 L194 637 L194 421 ZM680 101 L615 58 L551 101 L551 306 L680 349 L680 101 ZM194 101 L129 58 L65 101 L65 349 L194 306 L194 101 ZM596 44 L530 0 L216 0 L150 44 L216 86 L530 86 L596 44 Z" /><glyph glyph-name="v" unicode="v" d="M680 371 L551 421 L551 619 L680 706 L680 371 ZM194 421 L65 371 L65 706 L194 619 L194 421 ZM683 358 L390 0 L390 180 L513 329 L683 358 ZM357 -1 L65 359 L234 329 L357 180 L357 -1 Z" /><glyph glyph-name="w" unicode="w" d="M1167 371 L1037 414 L1037 634 L1167 720 L1167 371 ZM681 410 L615 371 L551 410 L551 648 L615 720 L681 648 L681 410 ZM1167 99 L1106 57 L1038 99 L1038 299 L1167 352 L1167 99 ZM195 414 L65 371 L65 720 L195 634 L195 414 ZM681 99 L617 55 L551 101 L551 322 L615 355 L681 322 L681 99 ZM1083 43 L1019 0 L215 0 L152 41 L216 86 L530 86 L615 28 L702 86 L1017 86 L1083 43 ZM194 99 L129 56 L65 99 L65 352 L194 298 L194 99 Z" /><glyph glyph-name="x" unicode="x" d="M623 649 L411 370 L344 370 L344 470 L533 720 L623 720 L623 649 ZM314 370 L246 370 L33 652 L33 720 L126 720 L314 470 L314 370 ZM623 0 L530 0 L344 248 L344 350 L411 350 L623 71 L623 0 ZM314 248 L125 0 L33 0 L33 73 L246 350 L314 350 L314 248 Z" /><glyph glyph-name="y" unicode="y" d="M680 371 L551 421 L551 634 L680 720 L680 371 ZM194 421 L65 371 L65 720 L194 634 L194 421 ZM651 360 L530 320 L216 320 L95 360 L216 407 L530 407 L651 360 ZM441 50 L372 0 L309 50 L309 301 L441 301 L441 50 Z" /><glyph glyph-name="z" unicode="z" d="M624 720 L393 365 L309 456 L483 720 L624 720 ZM455 720 L399 634 L164 634 L35 720 L455 720 ZM384 350 L152 0 L11 0 L231 330 L384 350 ZM599 0 L177 0 L240 86 L468 86 L599 0 Z" /><glyph glyph-name="bar" unicode="|" d="M170 0 L75 0 L75 720 L170 720 L170 0 Z" /><glyph glyph-name="emdash" unicode="&#x2014;" d="M680 403 L617 317 L65 317 L128 403 L680 403 ZM1295 403 L1232 317 L680 317 L743 403 L1295 403 Z" /><glyph glyph-name="quotedblleft" unicode="&#x201c;" d="M464 720 L393 472 L260 472 L330 720 L464 720 ZM237 720 L167 472 L33 472 L104 720 L237 720 Z" /><glyph glyph-name="quotedblright" unicode="&#x201d;" d="M464 720 L393 472 L260 472 L330 720 L464 720 ZM237 720 L167 472 L33 472 L104 720 L237 720 Z" /></font>
</defs>
</svg>
